<svg xmlns="http://www.w3.org/2000/svg" width="339.971" height="194.17" viewBox="0 0 339.971 194.17"><defs><style>.a{fill:#1a1d2d;}.a,.c,.d,.e,.f,.g,.h,.i,.j,.k,.l,.m,.n,.o,.p,.q,.r{fill-rule:evenodd;}.b,.c{fill:#fff;}.d{fill:#b7b7b7;}.e{fill:#d4d4d4;}.f,.s{fill:#f3bb23;}.g{fill:#979898;}.h{fill:#cdbfbd;}.i{fill:#fafdff;}.j{fill:#f6f4f4;}.k{fill:#d3d4d3;}.l{fill:#c3c7ca;}.m{fill:#8b8c8c;}.n{fill:#949394;}.o{fill:#858787;}.p{fill:#858585;}.q{fill:#4f2808;}.r{fill:#250d08;}.s{font-size:61px;font-family:RobotoCondensed-Bold, Roboto;font-weight:700;}</style></defs><path class="a" d="M0,370.806s173.389-37,339.971,0v11.3c-38.247-16.944-107.572-28.117-144.278-20.27-46.668,9.977-71.832,6.975-121.418,5.012-35.81-1.419-62.311,4.839-74.275,8.427Z" transform="translate(0 -208.453)"/><g transform="translate(147.319 0)"><g transform="translate(7.301)"><path class="a" d="M300.008,393.923q5.049.608,10.1,1.171c4.248.477,8.351.757,12.6,1.066a48.644,48.644,0,0,0,4.872-.04,15.694,15.694,0,0,0,3.077-.558,10.9,10.9,0,0,0,2.508-1.1,8.389,8.389,0,0,0,3.187-3.344,8.809,8.809,0,0,0-.239-8.645A12.684,12.684,0,0,0,334.151,380c1.807-3.66-.689-8.259-7.843-10.693l.671-.053a6.2,6.2,0,0,0,2.939.366,86.13,86.13,0,0,0,9.144-.924c.6-.113,17.647,5.563,24.8,5.166a40.644,40.644,0,0,0,4.227-.524,12.781,12.781,0,0,0,2.6-.713,9.828,9.828,0,0,0,2.024-1.046,6.035,6.035,0,0,0,2.3-2.725,5.331,5.331,0,0,0,.3-3.077,6.184,6.184,0,0,0-1.728-3.105,11.092,11.092,0,0,0-2.055-1.577c1.127-3.01-2.189-6.295-9.79-7.069-2.395-.13-13.576-7.738-24.362-8.188a6.232,6.232,0,0,0-1.384-1.877,11.1,11.1,0,0,0-2.055-1.467c1.126-2.8-2.188-5.857-9.789-6.577-7-.352-69.716-4.351-71.849,1.9a19.129,19.129,0,0,0-3.536,1,8.082,8.082,0,0,0-3.882,2.961,4.316,4.316,0,0,0-.71,2.57,4.635,4.635,0,0,0,.762,2.276,7.875,7.875,0,0,0,1.029,1.253,9.585,9.585,0,0,0-2.835,1.488,5.215,5.215,0,0,0-1.484,1.766,3.544,3.544,0,0,0-.288,2.433,4.46,4.46,0,0,0,1.118,1.989,7.37,7.37,0,0,0,1.452,1.182,12.936,12.936,0,0,0,2.541,1.19c.206.065.41.123.611.18-1.914.422-3.179,1.1-3.615,2.089a18.307,18.307,0,0,0-4.217.9,10.3,10.3,0,0,0-5.07,3.717,8.035,8.035,0,0,0-1.412,3.647,8.293,8.293,0,0,0,.315,3.451,11.344,11.344,0,0,0,.86,2,10.617,10.617,0,0,0-3.542,1.726,7.824,7.824,0,0,0-2.089,2.351,6.742,6.742,0,0,0-.9,3.512,7.211,7.211,0,0,0,.783,3.089,8.99,8.99,0,0,0,1.351,1.96,13.076,13.076,0,0,0,2.574,2.145c3.067,1.792,5.714,2.248,9.231,2.789.06.023.628.086.737.1,3.412.444,6.808.709,10.232.988,8.654.7,17.334.776,25.984,1.161.405.018,2.444.118,4.939.231a5.837,5.837,0,0,0,3.225.964,81.576,81.576,0,0,0,10.488.2,9.765,9.765,0,0,0,1.862-.5,5.237,5.237,0,0,0,1.2-.682Zm-20.211-36.4a6.1,6.1,0,0,0,.465.978,8.279,8.279,0,0,0,1.029,1.346c-.33.127-.631.251-.913.384-4.465-.7-8.867-1.315-12.991-1.78C271.535,358.213,275.667,357.869,279.8,357.526Z" transform="translate(-227.401 -202.043)"/><g transform="translate(7.038)"><path class="b" d="M381.364,229.1c-1.435-.107-1.263,1.074-1.486,1.9a52.819,52.819,0,0,1-2.47,8.167c-.536,1.184-1.327,2.255-.928,3.684.137.487-.232.881-.581,1.234a16.273,16.273,0,0,1-3.3,2.691c-2,1.175-4.113,2.134-6.036,3.442-1.96,1.332-2,1.391-.411,3.146,1.936,2.136,1.786,4.142-.451,5.971a8.355,8.355,0,0,1-3.145,1.617,20.239,20.239,0,0,1-9.17.233,152.187,152.187,0,0,0-15.437-2.463,18.1,18.1,0,0,1-11.42-5.7c-1.393-1.416-1.072-2.59.717-3.2.957-.326,2.344-.63,2.145-1.734-.205-1.139-1.642-1.108-2.718-1.127a.745.745,0,0,0-.33.124.321.321,0,0,0-.071.48h0c.151.2.381.175.592.2-.216,0-.439-.027-.592.18v0c-.294.314-.782.032-1.077.348h0a.461.461,0,0,1-.22.139,1.8,1.8,0,0,1-1.61,1.947c-2.657.254-5.21,1.738-7.794,2.363-1.054.256-2.123.422-3.176.653.676,3.03-1.859,7.608-2.334,10a1.4,1.4,0,0,1-1.106,1.18,1.012,1.012,0,0,1-.147.577.291.291,0,0,1-.027.272,1.222,1.222,0,0,0-.261,1,2.353,2.353,0,0,0,.177.509c.074.165.151.329.24.487a3.088,3.088,0,0,1,.24,2.244c-1.335,5.542-1.582,11.234-2.283,16.862a17.845,17.845,0,0,1-2.321,7.745,13.947,13.947,0,0,0-1.7,3.507,8.184,8.184,0,0,1-.014,1.843,1.565,1.565,0,0,1,1.633,1.63,17.757,17.757,0,0,1-2.019,8.509,2.772,2.772,0,0,0,.579.345c1-2.522,1.23-5.23,1.827-7.947a10.653,10.653,0,0,1,1.916,5.662c.009.53.127.985.621,1.17,1.611.607,2.8,1.95,4.536,2.4,1.424.369,2.776,1.068,4.184,1.52,4.231,1.356,6.306,4.286,6.86,8.608,1.246,9.719,1.846,19.5,2.771,29.244.171,1.8.736,3.654-.33,5.388-.033.361.228.5.486.639l-.007,0a3.61,3.61,0,0,0,.35.372,2.1,2.1,0,0,0,.354.359h.357a1.117,1.117,0,0,0,.331-.381l-.01.007.012-.01,0,0a1.233,1.233,0,0,0,.364-.352l-.009.007.014-.013-.005.005a2.214,2.214,0,0,0,.368-.345l0,0a4.616,4.616,0,0,1,.369-.322l.026-.02c.15-.235.492-.16.646-.39l.019-.023c-.005.009-.013.014-.019.023a1.812,1.812,0,0,0,.392-.331l.007,0a11.048,11.048,0,0,0,2.489-2.507l0,.008a.746.746,0,0,0,.076-.826c-1.907-1.4-2.31-3.423-2.464-5.637-.214-3.074-.671-6.136-.878-9.211-.18-2.661-1.172-5.408.4-8a.983.983,0,0,0-.186-1.166c-1.93-2.242-1.555-5.038-1.754-7.649-.176-2.288.487-2.7,2.85-2.741,5-.093,9.95.733,14.933.7a12.926,12.926,0,0,1,8.507,2.548,2.066,2.066,0,0,0,2.9-.135,10.7,10.7,0,0,0,3-4.367,100.2,100.2,0,0,0,4.922-16.921c.951-4.895,1.284-9.905,2.674-14.72a2.224,2.224,0,0,0-.77-2.385,9.9,9.9,0,0,1-2.21-3.192c-2.227-5.1.64-10.8,4.883-13.857a2.514,2.514,0,0,1,2.224-.271,6.453,6.453,0,0,1,2.447,1.724c.82.717,1.352,1.863,2.665,1.892.043-.131.087-.26.131-.392a.956.956,0,0,1,.284-.318l.02-.02a1.94,1.94,0,0,1,.337-.339l.019-.019a2,2,0,0,1,.337-.337l.018-.02a2.1,2.1,0,0,1,.339-.338l.019-.019c.1-.125.211-.247.321-.368.479-.8-.09-1.743.351-2.547.014-.341.03-.682.044-1.023.417-1.057-.126-2.206.313-3.26.012-.22.024-.443.037-.664a4.583,4.583,0,0,0,.018-2.492l-.022-.029c-.267-.222-.2-.456-.031-.7h0l.005-.008,0,.008a1.559,1.559,0,0,0,.357-.372c-.006,0-.013.01-.018.01l.022-.017,0,.007a.179.179,0,0,0,.075-.1c.033-.074.005-.148-.08-.228l.014.014c-.111-.122-.214-.252-.313-.383l-.027-.03a1.175,1.175,0,0,1-.329-.328l-.029-.029a1.2,1.2,0,0,1-.328-.327l-.028-.028a1.252,1.252,0,0,1-.33-.328l-.028-.03a1.14,1.14,0,0,1-.16-.131c-2.472-.03-4.934-.266-7.407-.286a1.651,1.651,0,0,1-1.6-2.053.519.519,0,0,1-.121-.048c-.289-.218-.235-.451-.024-.689v.009c.207-.181.539-.125.711-.371l-.007,0,.016-.012s-.006,0-.009.009c.22-.165.554-.105.721-.373l-.022.024a3.4,3.4,0,0,0,.394-.3.259.259,0,0,1,.241-.071c.267-.124.6-.087.808-.352l-.009,0,.018-.013s-.007.005-.01.008c.222-.152.54-.108.717-.348l-.007,0,.016-.012s-.007,0-.01.008c.216-.165.537-.118.721-.349l-.006,0,.011-.008,0,0c.211-.177.531-.126.724-.343h0c.288-.32.787-.026,1.068-.362h0l.006,0,0,0A5.122,5.122,0,0,0,378,244.306a.4.4,0,0,1,.036-.309c.345-.433-.037-1.031.326-1.46a.428.428,0,0,1,.043-.328c.271-.31.008-.778.32-1.076l-.005.011c.4-.405-.027-1.023.368-1.431l0,.005c.309-.332.081-.814.33-1.16a.287.287,0,0,1,.043-.27c.3-.318.04-.8.329-1.118a.422.422,0,0,1,.048-.316c.269-.309.008-.778.32-1.074l-.005.009c.4-.424-.009-1.04.352-1.472a.434.434,0,0,1,.046-.319c.26-.335.039-.8.3-1.131a.343.343,0,0,1,.032-.289c.357-.445-.009-1.047.326-1.5a.337.337,0,0,1,.03-.29A3.036,3.036,0,0,0,381.364,229.1Z" transform="translate(-258.467 -168.36)"/><path class="b" d="M442.214,364.427a.29.29,0,0,1-.035-.274c-.26-.339-.014-.832-.347-1.151l.008.014c-.2-.2-.133-.519-.322-.725a.224.224,0,0,1-.06-.234,1.257,1.257,0,0,0-.3-.491l-.013-.023c-.246-.158-.158-.515-.4-.676l.018.019a4.725,4.725,0,0,0-.332-.389l-.008-.01c-.222-.163-.153-.5-.39-.658l0,0-.031-.023a.1.1,0,0,1,.028.02.934.934,0,0,0-.357-.377l.012.014-.02-.02.009.006a1.1,1.1,0,0,0-.352-.354l.007.01-.02-.019a.093.093,0,0,1,.013.01,1.254,1.254,0,0,0-.349-.364l.005,0-.015-.014a.029.029,0,0,1,.01.009,2.035,2.035,0,0,0-.355-.37l.008.008a2.772,2.772,0,0,0-.357-.358l-.007-.007a2.82,2.82,0,0,0-.358-.358l.008.008a2.812,2.812,0,0,0-.366-.365l.008.008a2.927,2.927,0,0,0-.364-.364l.008.007a1.964,1.964,0,0,0-.371-.353l.008.009-.015-.016s0,0,.007.007a1.183,1.183,0,0,0-.358-.344l.005.006-.023-.018c.006,0,.01.008.018.012a.729.729,0,0,0-.473-.35.249.249,0,0,1-.233-.084,2.315,2.315,0,0,0-.417-.288.417.417,0,0,1-.3-.089c-.135-.1-.275-.183-.417-.268a.393.393,0,0,1-.292-.062c-.23-.167-.537-.133-.77-.29l-.662-.075c-.691-.284-1.469.033-2.15-.322-.349.314-.719.609-1.042.948a2.347,2.347,0,0,0-.859,1.165c.855-.318,1.568-.574,2.274-.849a1.85,1.85,0,0,1,1.045-.125.725.725,0,0,1,.56.394c.112.25,0,.432-.2.6a55.472,55.472,0,0,0-4.269,3.757,9.1,9.1,0,0,0-1.895,2.984,4.255,4.255,0,0,0,1.1,4.706,8.308,8.308,0,0,0,7.286,1.923,2.006,2.006,0,0,1,1.386.035,1.4,1.4,0,0,0,1.347-.148,3.525,3.525,0,0,0,1.226-1.014,2.721,2.721,0,0,1,2.037-.914c.311-.03.335.256.392.477.152.1.256.052.321-.108a.357.357,0,0,1,.074-.272c.163-.21.1-.516.309-.707l0,.005c.322-.292.031-.787.358-1.078l0,.006A2.058,2.058,0,0,0,442.214,364.427Z" transform="translate(-298.028 -208.472)"/><path class="b" d="M389.83,189.753a.745.745,0,0,0-.36-.368l0,.005-.021-.018c.007,0,.011.009.018.013a1.334,1.334,0,0,0-.33-.4l0,.005a3.26,3.26,0,0,1-.319-.371l-.029-.029a1.2,1.2,0,0,1-.327-.328l-.029-.029a1.193,1.193,0,0,1-.328-.328l-.028-.029a1.176,1.176,0,0,1-.252-.234,6.206,6.206,0,0,1-.82-.142c-4-1-8.4-.887-12.5-1.56a103.916,103.916,0,0,1-12.432-2.561,73.284,73.284,0,0,0-12.181-2.075c-1.72-.209-3.628-1-5.335-1.051a15.55,15.55,0,0,1-3.167-.39,5.922,5.922,0,0,1-1.172.461c-2.112.588-3.954,1.779-6.012,2.521-1.829.659-3.689,1.213-5.527,1.843-3.021,1.035-5.812,2.607-8.821,3.649a18.58,18.58,0,0,1-.112,7.334c-.553,3.3-1.113,6.6-1.652,9.9-1.228,7.521-1.223,15.344-3.166,22.73a2.409,2.409,0,0,1,.312.305l.016.013a3.474,3.474,0,0,0,.389.324l-.02-.02c.311.366.813.108,1.159.356l.133-.015.122.051c.33.311.814.074,1.163.324l.137-.016.129.049c.541.417,1.256-.064,1.8.346l-.006-.005c.807.483,1.754-.073,2.571.346l.139-.031.133.046a1.751,1.751,0,0,0,1.412.109c.042-1.123-.95-1.053-1.587-1.29a46.674,46.674,0,0,1-6.453-2.538c.115-.16.215-.2.348-.173,8.93,1.74,17.9,3.213,26.944,4.238,6.206.7,12.308,2.1,18.48,3.048a3.543,3.543,0,0,0,2.6-.227c2.848-1.828,5.843-3.46,8.255-5.9,6.684-6.759,10.617-14.959,12.567-24.177.7-3.324,1.1-6.71,1.852-10.27.629,1.312.176,2.537.764,3.559a.294.294,0,0,0,.48.022.39.39,0,0,1,.037-.3c.337-.449-.016-1.042.315-1.492a.34.34,0,0,1,.03-.289c.4-.553-.067-1.268.339-1.821a.435.435,0,0,1,.037-.327c.33-.441-.035-1.031.315-1.467a.424.424,0,0,1,.042-.316c.175-.364.278-.72-.086-1.038Z" transform="translate(-262.455 -152.605)"/><path class="b" d="M270.734,330.922a3.247,3.247,0,0,1-.763-1.575,12.891,12.891,0,0,1,.117-2.857c-2.257.909-4.7,1.325-6.848,2.536-2.223,1.254-1.4,4.309-4.209,5.214-2.016.651-4.3-1.22-5.92-2.089a9.331,9.331,0,0,0-8.3-.378,1.02,1.02,0,0,1,.021.171c.006.461.322.564.675.677,2.538.811,5.066,1.656,7.615,2.436a1.4,1.4,0,0,1,1.186,1.337,1.8,1.8,0,0,0,.373.985,4.967,4.967,0,0,1,.946,3.173,36.876,36.876,0,0,1,.445,5.3,1.385,1.385,0,0,0,.036.53,11.924,11.924,0,0,1,.313,3.528,4,4,0,0,0,.048,1.065,13.172,13.172,0,0,1,.273,3.889c.018,1.781,0,3.563.013,5.344a7.957,7.957,0,0,0,.129,1.59,25.222,25.222,0,0,1,.583,4.2c.106,2.838-.22,5.691.331,8.518a1.391,1.391,0,0,1-1.24,1.653,5.328,5.328,0,0,1-.887.039c-.035,0-.057.05-.066.148-.007.082.059.131.2.147a.313.313,0,0,1,.257.067.572.572,0,0,0,.692.033l.379-.029.369.318-.009-.009a1.813,1.813,0,0,0,.371.366l-.012-.012a1.21,1.21,0,0,0,.383.359l-.018-.027a.4.4,0,0,0,.679.01l-.017.021a3.692,3.692,0,0,0,.388-.326l.017-.011c.169-.231.523-.148.683-.4l-.018.019c.147-.086.253-.221.39-.318l.022-.014c.163-.237.52-.15.675-.4l-.018.021a2.339,2.339,0,0,0,.388-.334l.009,0c.169-.217.509-.148.664-.388l0,0,.02-.027a.116.116,0,0,1-.018.025,1.025,1.025,0,0,0,.377-.345l0,0,.014-.015-.009.011c.14-.089.247-.22.383-.315l.025-.016a16.919,16.919,0,0,0,2.491-2.453l.037-.046a.284.284,0,0,0,.012-.309c-.861-.083-1.265-.809-1.831-1.308a2.342,2.342,0,0,1-.77-1.527c-.275-1.86-.675-3.7-.974-5.557-.187-1.159-.3-2.332-.408-3.5a11.61,11.61,0,0,0-.232-1.926,8.557,8.557,0,0,1-.1-2.821,4.173,4.173,0,0,1,1.709-2.754c.555-4.066-.4-8.091-.318-12.173.5.129.853.728,1.454.422a6.166,6.166,0,0,0-.028-.711,1.883,1.883,0,0,1,1.1-2.014,35.676,35.676,0,0,1,3.781-1.97,5.388,5.388,0,0,0,2.847-3.232.951.951,0,0,0-.122-1A8.507,8.507,0,0,1,270.734,330.922Z" transform="translate(-240.012 -199.533)"/><path class="c" d="M413.566,284.07l-.007.008v0Z" transform="translate(-294.02 -185.956)"/><path class="c" d="M341.605,415.3h0Z" transform="translate(-270.991 -227.956)"/><path class="d" d="M343.4,368.8a3.443,3.443,0,0,1-2.593-3c-.271-2.41-.617-4.811-.7-7.239-.561-1.594-.167-3.3-.606-4.93-.211-.783.1-1.722-.169-2.471-.415-1.169.187-2.346-.254-3.48-.133-.341.112-.7.311-.992.3-.439.632-.851.989-1.325a3.345,3.345,0,0,0-.57-.672,3.367,3.367,0,0,1-1.369-2.777,52.457,52.457,0,0,1-.452-5.311,4.994,4.994,0,0,1,.241-1.57,1.9,1.9,0,0,1,1.982-1.372c1.837.224,3.679.039,5.517.121a6.44,6.44,0,0,1,2.115.232,1.282,1.282,0,0,0,.526.082c2.974-.169,5.907.62,8.881.386a11.555,11.555,0,0,1,6.311,1.538,7.564,7.564,0,0,1,1.583,1.14c.856.768,1.267.73,2.153-.029a10.239,10.239,0,0,0,2.791-3.86,83.575,83.575,0,0,0,2.92-8.587c.672-2.274,1.292-4.562,1.775-6.882.4-1.908.708-3.836,1.04-5.757a100.458,100.458,0,0,1,1.769-9.949c.048-.171.018-.385.109-.518.711-1.035.19-1.686-.6-2.385-2.4-2.133-3.149-4.948-3.017-8.028a9.927,9.927,0,0,1,.649-2.757,10.956,10.956,0,0,1,3.027-4.957c.541-.465,1-1.015,1.523-1.5a3.46,3.46,0,0,1,4.816-.044c.92.841,1.772,1.759,2.661,2.638.251.246.523.474.786.709l.123-.034a.628.628,0,0,0,.3.318l.044.044a.979.979,0,0,0,.308.34l.017.024c.095.139.226.246.322.384l-.011-.013a.931.931,0,0,1,.345.411l-.035-.035c.288.131.2.506.432.668l.007.014c.1.141.261.243.3.429l-.039-.039c.306.154.243.5.39.74l-.022-.034c.3.2.26.553.377.836a.163.163,0,0,0,.081.22c.178.2.1.52.325.7l0,0c.2.212.161.526.322.755l-.018-.029c.377.3.128.783.335,1.13l-.022-.029c.322.124.24.5.429.7l-.013-.02c.252.222.228.559.345.838a.168.168,0,0,0,.07.229c.186.214.136.523.307.742l-.014-.023c.262.219.233.559.352.838a.165.165,0,0,0,.07.228c.186.21.128.524.315.732l-.008-.017c.242.218.207.553.343.815a.212.212,0,0,0,.071.256c.175.215.126.522.3.736l-.012-.02c.366.263.044.784.392,1.053l0,.008c.2.234.175.555.314.813a.222.222,0,0,0,.077.269c.165.214.111.519.3.722l-.005-.013a2.16,2.16,0,0,1,.326.862.135.135,0,0,0,.056.205,2.881,2.881,0,0,1,.3.857.148.148,0,0,0,.065.217c.268.336.073.783.271,1.135l-.024-.032c.336.156.263.528.41.783a.215.215,0,0,0,.071.258c.173.241.152.551.29.805a.22.22,0,0,0,.075.268c.165.212.111.52.3.722l-.005-.013c.227.235.214.564.328.843a.168.168,0,0,0,.069.229c.186.211.133.523.312.737l-.011-.02c.249.229.232.565.341.849a.149.149,0,0,0,.065.217c.194.206.134.524.323.734l-.009-.017c.241.228.221.563.337.841a.166.166,0,0,0,.07.228c.185.214.136.524.307.743l-.013-.026c.43.418.037,1.029.345,1.476l-.022-.027a.589.589,0,0,1,.385.5.121.121,0,0,0,.063.186c.193.21.138.525.317.74l-.011-.021c.363.28.067.786.373,1.085l-.008-.016c.237.234.226.566.335.852a.141.141,0,0,0,.052.213c.211.23.173.557.315.815a.216.216,0,0,0,.069.262c.173.217.129.522.3.741l-.015-.025c.373.279.076.786.375,1.09l-.01-.02c.249.232.235.568.341.857a.134.134,0,0,0,.052.206,2.668,2.668,0,0,1,.3.864.137.137,0,0,0,.056.207c.366.417-.041,1.02.342,1.433l0,0c.216.192.156.522.358.721l0-.01c.327.3.051.787.352,1.091l-.009-.016c.341.316.094.813.35,1.155-.005.514-.012,1.026-.015,1.538-.107.29-.09.63-.347.857l.013-.022c-.182.212-.107.572-.41.715l.037-.038a.881.881,0,0,1-.333.418l.007-.008a3.8,3.8,0,0,0-.305.384l-.017.027c-.148.207-.2.464-.356.664a2.947,2.947,0,0,1-.842.781c1.06-.152,2.314-1.015,2.918.227.632,1.306-.9,1.719-1.613,2.365-1.536,1.393-3.206,2.648-4.138,4.575-1.116,2.305-.622,4.14,1.479,5.548A8.619,8.619,0,0,0,406,346.1c1.819-.124,3.61-.13,5.035-1.655.394-.422,1.57-1.2,2.072.273a.775.775,0,0,1-.151.473c-.008.119-.013.241-.02.36a.459.459,0,0,1-.026.705l.011-.014c-.2.2-.107.578-.441.687l.049-.049c-.1.33-.488.237-.672.443h0a.7.7,0,0,1-.432.308l.034-.04c-.117.337-.486.252-.7.422l.012-.014a.835.835,0,0,1-.462.284,4.362,4.362,0,0,0-1.545.857c-4.307,3.77-12.372,1.669-14.967-3.651-1.3-2.671-.426-5.348.56-7.949.275-.72.978-1.5-.065-2.2a2.536,2.536,0,0,1-.584-.549l.01.026a1.018,1.018,0,0,1-.394-.352l.008.01a1.621,1.621,0,0,1-.367-.364l.009.008a1.622,1.622,0,0,1-.365-.366l.008.009a1.7,1.7,0,0,1-.365-.364l.008.007a1.664,1.664,0,0,1-.366-.365l.009.008a1.665,1.665,0,0,1-.365-.366l.008.009a1.665,1.665,0,0,1-.365-.366l.008.01a.987.987,0,0,1-.347-.4l.033.039c-.3-.211-.265-.564-.371-.855a.136.136,0,0,0-.074-.2c-.186-.2-.119-.522-.325-.717l0,0c-.216-.2-.171-.523-.337-.749l.016.025c-.268-.223-.247-.566-.354-.857l0-.062c.05-.176.135-.355-.028-.52l.008.015a.853.853,0,0,1-.345-.415l.039.041c-.315-.179-.258-.54-.39-.809a.189.189,0,0,0-.078-.24c-.173-.218-.129-.523-.3-.742l.014.025c-.26-.226-.241-.568-.348-.855a.131.131,0,0,0-.051-.205c-.215-.219-.162-.549-.326-.79a.256.256,0,0,0-.073-.289c-.16-.216-.107-.519-.3-.721l0,.011c-.227-.227-.2-.558-.332-.823a.2.2,0,0,0-.084-.253c-.161-.216-.11-.52-.3-.722l.007.013c-.233-.221-.2-.553-.337-.814a.214.214,0,0,0-.078-.26c-.169-.207-.1-.52-.315-.7v0c-.2-.208-.163-.526-.332-.749l.016.02c-.1-.069-.13-.141-.1-.216s.055-.116.084-.116l-.007.017c.081-.084.1-.161.065-.231s-.069-.1-.1-.1l-.029-.04a1.321,1.321,0,0,0-.311-.354l-.01-.014c-.106-.137-.258-.241-.311-.419l.033.037c-.29-.164-.231-.506-.382-.741l.022.029c-.285-.168-.229-.509-.378-.745l.012-.012c-.714-.19-.554.358-.592.715a10.206,10.206,0,0,1-.144,2.554,1.484,1.484,0,0,0-.073.942c-.313.606.041,1.314-.292,1.917-.02.2-.039.41-.061.616-.346.589.067,1.3-.315,1.887a.228.228,0,0,0-.034.28c-.321.456.012,1.044-.3,1.5a.272.272,0,0,0-.046.307c-.38.565.044,1.266-.312,1.835l-.059.616c-.371.711.084,1.536-.312,2.243a.26.26,0,0,0-.032.3c-.4.69.059,1.5-.3,2.195-.018.22-.036.44-.053.661-.427.812.1,1.747-.33,2.557a.231.231,0,0,0-.035.282c-.358.433.1,1.09-.4,1.482l.035-.045a.654.654,0,0,1-.382.394l.03-.03a.686.686,0,0,1-.386.386l.028-.029a.685.685,0,0,1-.385.386l.029-.029a.684.684,0,0,1-.385.384l.029-.027a.686.686,0,0,1-.386.386l.029-.029a.693.693,0,0,1-.386.385l.029-.031a.544.544,0,0,1-.41.362l.037-.039c-.124.332-.487.252-.712.412l.021-.016c-.165.28-.505.218-.732.375l.02-.014c-.158.273-.507.2-.71.392l.005,0c-.167.235-.512.154-.683.382l-.02.01c-.135.108-.235.269-.43.291l.033-.035c-.132.322-.492.245-.716.407l.022-.016c-.155.275-.507.2-.7.4h0c-.171.225-.513.142-.68.376l-.025.013c-.139.1-.237.262-.425.292l.031-.033c-.135.311-.5.231-.708.411l.017-.011c-.166.253-.511.178-.7.385l0,0a5.618,5.618,0,0,1-1.112.675l.022-.016c-.151.283-.5.207-.708.4l.007,0a.673.673,0,0,1-.425.322l.035-.038c-.124.331-.487.251-.71.413l.021-.014c-.16.274-.506.2-.714.39l.014-.008c-1.621.547-3.337-.13-4.958.4l-.019.022c-.244.16-.158.506-.382.677l0-.007c-.2.2-.127.553-.407.706l.031-.033c-.058.171-.209.273-.3.417l-.012.023c-.243.16-.158.509-.387.677l.005-.01c-.2.194-.116.57-.434.69l.039-.038a.781.781,0,0,1-.319.429l0,0c-.207.188-.118.569-.441.682l.041-.039a.64.64,0,0,1-.345.422l.021-.022a2.236,2.236,0,0,1-.326.4l-.008.013c-.307.307-.415.766-.788,1.023l.035-.032a.754.754,0,0,1-.362.4l.02-.021a1.172,1.172,0,0,1-.357.385l.008-.009a1.636,1.636,0,0,1-.365.366l.009-.009a1.656,1.656,0,0,1-.366.366l.009-.008a1.673,1.673,0,0,1-.365.364l.008-.008a1.685,1.685,0,0,1-.364.364l.008-.009a1.684,1.684,0,0,1-.365.366l.009-.008a1.3,1.3,0,0,1-.38.359l.017-.016a1.351,1.351,0,0,1-.359.381l.005-.01a32.4,32.4,0,0,1-4.237,4.313l-.026.025a1.293,1.293,0,0,0-.329.328l-.028.028a1.347,1.347,0,0,0-.329.328l-.029.029a2.417,2.417,0,0,0-.356.32l-.01.008a4.021,4.021,0,0,1-.373.341l.008-.008a1.69,1.69,0,0,1-.366.364l.008-.007a1.381,1.381,0,0,1-.376.362l.016-.015a.9.9,0,0,1-.4.356l.026-.026a.724.724,0,0,1-.381.388l.027-.027a.993.993,0,0,1-.355.4l.014-.014a1.526,1.526,0,0,1-.365.371l.009-.008a1.756,1.756,0,0,1-.364.366l.007-.008a4.287,4.287,0,0,1-.339.375l-.008.01a2.017,2.017,0,0,0-.317.355l-.026.03c-.331.282-.432.741-.781,1.01l.03-.027a1.071,1.071,0,0,1-.355.4l.012-.011a1.6,1.6,0,0,1-.366.368l.008-.008a1.612,1.612,0,0,1-.364.365l.009-.007a1.718,1.718,0,0,1-.365.364l.008-.008a1.741,1.741,0,0,1-.365.366l0-.008C343.616,368.884,343.526,368.914,343.4,368.8Z" transform="translate(-269.827 -184.956)"/><path class="d" d="M291.953,343.845a21.607,21.607,0,0,1,.59-3.84c.291-1.42.859-2.835.628-4.357-.044-.291.247-.634.453-1.117a6.616,6.616,0,0,1,1.57,2.669,3.694,3.694,0,0,0,.661,1.631,2.34,2.34,0,0,1,.236,2.948c-.054.078-.007.225-.007.4.431.162.862.352,1.311.481.643.187,1.248.373,1.494,1.106.108.321.464.3.741.4a75.834,75.834,0,0,1,7.955,3.091,13.782,13.782,0,0,1,2.839,2.123,2.681,2.681,0,0,1,.884,1.512c.144.692.415,1.358.616,2.04a28.473,28.473,0,0,1,.834,4.707c.221,1.818.273,3.649.583,5.464.269,1.569.326,3.177.454,4.771a6,6,0,0,0,.222,1.758,1.3,1.3,0,0,1,.1.521c-.122,2.026.354,4.014.374,6.029a47.433,47.433,0,0,0,.649,6.528,11.483,11.483,0,0,1,.072,1.244,12.793,12.793,0,0,0,.261,2.648,3.265,3.265,0,0,1-.987,3.549.7.7,0,0,1-1.038-.005l.02.012c-.223-.167-.537-.113-.746-.314l-.089-.08-.12.019c-.287-.1-.615-.1-.853-.325l0,0c-.291-.312-.8-.01-1.07-.374l.013.009c-.215-.181-.547-.121-.73-.365l.022.022c-.154-1.032-.747-1.327-1.771-1.277a5.948,5.948,0,0,1-2.891-.177l.016.009c-.312-.285-.789-.02-1.1-.326l-.1-.075-.125.026c-.365-.222-.855,0-1.189-.336l.007,0c-.415-.367-1.031.054-1.435-.362l.007,0c-.424-.366-1.036.048-1.449-.352l-.095-.071-.111.038c-.494-.275-1.107.046-1.58-.321l-.093-.07-.109.038a1.028,1.028,0,0,1-.509-.291l-.025-.021a1.546,1.546,0,0,0-.336-.326l-.028-.028a1.319,1.319,0,0,0-.33-.329l-.029-.029a1.308,1.308,0,0,0-.328-.328l-.029-.028a1.308,1.308,0,0,0-.329-.33l-.028-.028a1.538,1.538,0,0,0-.328-.34l-.017-.02c-.411-.94.114-1.981-.315-2.918-.013-.219-.025-.437-.038-.658-.429-1.058.123-2.212-.318-3.268-.011-.218-.022-.437-.032-.655-.445-1.057.121-2.215-.326-3.273a1.643,1.643,0,0,0-.052-1.017c-.371-.968.086-2.018-.286-2.986a1.532,1.532,0,0,0-.056-.936c-.43-1.058.122-2.211-.319-3.269-.011-.218-.021-.436-.031-.655-.634-.611.553-1.831-.745-2.219l.01.006a14,14,0,0,1-1.454.735l.024-.02c-.143.3-.5.218-.7.409l.006,0a.673.673,0,0,1-.423.325l.034-.039c-.126.33-.488.252-.714.409l.022-.016c-.143.278-.5.193-.685.41l-.008.006c-.13.121-.23.276-.424.306l.032-.036c-.131.316-.494.236-.706.415l.016-.012c-.341.275-.871.277-1.085.74l.018-.018a1.315,1.315,0,0,1-.37.373l.011-.012a.728.728,0,0,1-.418.334l.033-.037c-.112.313-.493.217-.665.44l-.011.009a1.528,1.528,0,0,1-.4.326l.025-.024c-.138.265-.506.167-.653.417l-.037.023q-.194.153-.392.3l.017-.016a6.642,6.642,0,0,1-1.077.728l.007,0a.7.7,0,0,1-.421.33l.035-.037c-.118.318-.493.231-.685.431l0,0a.844.844,0,0,1-.414.332l.033-.035c-.126.3-.5.213-.678.428l-.006,0c-.126.123-.23.277-.422.313l.033-.035c-.126.308-.495.222-.686.424h0a.693.693,0,0,1-.429.311l.04-.036c-.2.476-.771.1-1.031.445l-.005,0a2.245,2.245,0,0,1-.371.348l.01-.01a.968.968,0,0,1-.4.349l.03-.03c-.146.281-.5.2-.692.408l0,0a.857.857,0,0,1-.419.317l.033-.035c-.136.313-.494.237-.714.4l.018-.012c-.151.264-.507.18-.681.4l-.014.009a1.127,1.127,0,0,1-.415.311l.029-.031c-.127.288-.5.2-.664.426l-.02.012a1.894,1.894,0,0,1-.4.318l.024-.024c-.137.264-.507.167-.654.418l-.035.022a2.34,2.34,0,0,1-.572.2,3.4,3.4,0,0,1-2.758-2.9,101.121,101.121,0,0,1-1.783-12.32,4.659,4.659,0,0,1,1.7-4.449c1.019-1.331,2.581-1.87,3.97-2.64,4.513-2.5,8.9-5.231,13.788-7.029C288.942,344.829,290.636,344.884,291.953,343.845Z" transform="translate(-247.42 -202.107)"/><path class="e" d="M324.74,236.055a24.034,24.034,0,0,0-3.831-1.374,43.681,43.681,0,0,1-4.454-1.8,4.2,4.2,0,0,1-.768-.447.461.461,0,0,1-.144-.63.612.612,0,0,1,.408-.269,3.063,3.063,0,0,1,.869.109c2.239.573,4.518.927,6.8,1.284,2.509.4,5,.9,7.508,1.319,1.866.307,3.749.521,5.619.813,2.164.338,4.348.493,6.519.748,2.58.3,5.133.828,7.7,1.257q3.585.6,7.172,1.2c1.692.283,3.391.525,5.066.881a1.809,1.809,0,0,0,1.517-.212c2.378-1.665,5.025-2.953,7.184-4.922a32.6,32.6,0,0,0,4.928-5.374,46.023,46.023,0,0,0,5.2-9.3c.348-.883.832-1.711,1.189-2.59a41.234,41.234,0,0,0,2.26-8.386c.489-2.735.991-5.467,1.4-8.218a12.447,12.447,0,0,1,.579-2.044c.067-.207.23-.465.52-.331a.648.648,0,0,1,.255.411,22.614,22.614,0,0,1,.4,4.415,1.463,1.463,0,0,1-.035,1.384.184.184,0,0,0-.032.259c-.383.83.076,1.756-.294,2.587a1.571,1.571,0,0,0-.065.975c-.373.71.088,1.538-.317,2.244a.232.232,0,0,0-.035.28c-.324.455.024,1.05-.313,1.5a.232.232,0,0,0-.044.281c-.257.34-.041.806-.3,1.144a.239.239,0,0,0-.053.286c-.264.337-.029.815-.32,1.145a.177.177,0,0,0-.051.243c-.123.266-.108.581-.293.825a.19.19,0,0,0-.062.249c-.13.264-.106.583-.3.823a.145.145,0,0,0-.058.219c-.294.48.073,1.111-.357,1.56l.013-.032c-.078.154-.107.345-.305.409a2.314,2.314,0,0,0-.87,2.344,1.062,1.062,0,0,1-.16.667,14.813,14.813,0,0,0-1.047,3.392,16.987,16.987,0,0,1-2.261,5.576.894.894,0,0,0-.115.988,2.37,2.37,0,0,1,.253.849c.05.66.065,1.331-.777,1.562a1.05,1.05,0,0,0-.672.55,3.924,3.924,0,0,1-1.688,1.538c-1.169.7-2.319,1.455-3.547,2.04-1.673.8-3.131,1.931-4.754,2.8a.469.469,0,0,0-.082.851c.224.193.462.372.7.553a5.046,5.046,0,0,1,1.688,2.863,2.985,2.985,0,0,1-.615,2.838,8.544,8.544,0,0,1-3.871,2.743,11.152,11.152,0,0,1-3.471.7,8.632,8.632,0,0,0-1.229.161,4.784,4.784,0,0,1-1.051.135c-1.412-.133-2.827-.268-4.228-.481a47.583,47.583,0,0,1-8.123-1.869,5.441,5.441,0,0,0-1.587-.109,14.587,14.587,0,0,1-3.716-.285,25.521,25.521,0,0,0-2.654-.211,19.232,19.232,0,0,1-4.4-1.369,20.84,20.84,0,0,1-7.068-4.7,2.886,2.886,0,0,1-.676-2.625,1,1,0,0,1,.511-.7,2.546,2.546,0,0,1,1.144-.463,4.226,4.226,0,0,0,.879-.112c.653-.2,1.586-.987,1.435-1.168-.377-.45-.939-.444-1.459-.552s-.991-.436-1.552-.244a1.434,1.434,0,0,1-1.34-.095l.006.005c-.424-.366-1.032.044-1.448-.349l-.093-.073-.113.036c-.481-.286-1.112.078-1.56-.355l.015.014C325.519,236.132,324.992,236.483,324.74,236.055Z" transform="translate(-262.626 -158.326)"/><path class="d" d="M247.011,376.551l-.1-.073-.119.036c-.485-.283-1.1.047-1.567-.324l-.1-.071-.118.039c-.486-.278-1.089.035-1.562-.312l-.118-.073-.136.033c-.462-.311-1.08.06-1.52-.345l.015.011c-.129-.105-.257-.209-.387-.309l-.029-.029a1.355,1.355,0,0,0-.328-.328l-.029-.028a1.326,1.326,0,0,0-.329-.329l-.028-.028a1.3,1.3,0,0,0-.329-.328l-.029-.029a1.333,1.333,0,0,0-.328-.328l-.03-.029a2.193,2.193,0,0,0-.323-.356l0-.005c-.474-1.919.121-3.9-.32-5.816a2.624,2.624,0,0,0-.061-1.329c-.4-1.31.119-2.69-.3-4a4.035,4.035,0,0,0-.052-1.713,59.946,59.946,0,0,1-.152-6.349,4.344,4.344,0,0,0-.158-1.914,5.591,5.591,0,0,0-.052-2.089c-.4-1.8.127-3.651-.291-5.452a1.629,1.629,0,0,0-.051-.97c-.429-1.3.121-2.682-.319-3.984,0-.435,0-.872,0-1.307.46-1.662-.131-3.393.33-5.055l.006-.012a1.268,1.268,0,0,0,.3-.357l.044-.044a.888.888,0,0,0,.331-.309l.033-.025a1.306,1.306,0,0,1,.49-.285.175.175,0,0,0,.235-.065,1.546,1.546,0,0,1,1.418.012.159.159,0,0,0,.227.064c.287.134.615.087.907.2,1.709,1.871,4.116,2.4,6.377,2.885,3.894.839,5.012,3.567,5.432,6.936a91.57,91.57,0,0,1,1.015,12.041c-.052,6.245,1.061,12.415.841,18.651a19.928,19.928,0,0,0,.2,2.659c.173,1.813-.373,2.36-2.323,2.444-.3-.021-.629.05-.891-.181l-.092-.076-.115.031c-.377-.209-.866,0-1.209-.334l.007.005c-.417-.366-1.029.05-1.435-.358l0,0c-.419-.371-1.033.046-1.446-.355l-.094-.071-.112.039C247.85,376.661,247.366,376.857,247.011,376.551Z" transform="translate(-237.752 -201.331)"/><path class="d" d="M299.468,284.132a2.689,2.689,0,0,1,.608,2.627,29.465,29.465,0,0,0-.978,5.569c-.016.581-.665.9-.567,1.449a3.4,3.4,0,0,1,.186,1.566c-.472,1.488-.222,3.052-.586,4.562a33.726,33.726,0,0,0-.454,4.008c-.136,1.172-.257,2.35-.475,3.506a6.279,6.279,0,0,1-1.077,2.78,15.588,15.588,0,0,0-1.182,2.186c-.5.936-1.01,1.867-1.516,2.8a2.619,2.619,0,0,1-.22,1.295,11.214,11.214,0,0,1-1.491,2.2,18.2,18.2,0,0,0-3.706,5.365c-1.2,3-4.244,4.569-7.588,5.214a8.678,8.678,0,0,1-7.946-2.319c-.565-1.567.093-2.606,1.43-3.384,1.176-.685,2.428-1.223,3.61-1.9,2.367-1.346,2.621-2.47,1.4-4.829a5.869,5.869,0,0,1,.222-5.911,9.175,9.175,0,0,0,.766-.741l-.033.03a1.321,1.321,0,0,1,.322-.415l0-.007c.226-.171.135-.552.442-.669l-.039.038a.81.81,0,0,1,.333-.424l-.01.012a2.758,2.758,0,0,0,.275-.365.157.157,0,0,0,.114-.2.645.645,0,0,1,.364-.508l-.026.032a.917.917,0,0,1,.372-.389l-.013.018c.173-.22.115-.56.373-.736l-.023.026c.1-.131.193-.262.3-.39a.135.135,0,0,0,.086-.192.677.677,0,0,1,.352-.514l-.021.024c.08-.15.221-.256.307-.4l.016-.029c.254-.15.162-.509.4-.665l-.015.018c.1-.122.192-.245.279-.376a.165.165,0,0,0,.106-.212.754.754,0,0,1,.334-.5l-.006.011c.2-.194.114-.57.432-.692l-.04.038a.815.815,0,0,1,.322-.43l-.005.008c.206-.193.122-.565.431-.691l-.039.037a.885.885,0,0,1,.325-.424l0,.006c.208-.194.128-.558.417-.7l-.035.035a1.271,1.271,0,0,1,.315-.42l0-.008c.228-.174.145-.533.409-.687l-.025.029a3.693,3.693,0,0,1,.3-.41l.014-.027c.25-.153.16-.508.4-.67l-.012.016a2.826,2.826,0,0,0,.271-.369.172.172,0,0,0,.116-.213.662.662,0,0,1,.362-.5l-.024.029a1.208,1.208,0,0,1,.355-.4l-.007.012c.189-.211.143-.526.328-.738l.007-.014c.237-.168.15-.531.415-.68l-.027.03a1.3,1.3,0,0,1,.342-.4l0,0c.113-.126.233-.244.355-.361h0c.116-.123.235-.24.356-.357h0c.324-.292.042-.777.346-1.075l0-.006c.225-.18.147-.53.394-.7l-.018.024c.083-.148.222-.253.307-.4l.024-.032a.87.87,0,0,0,.311-.33l.044-.043a.733.733,0,0,0,.313-.313l.044-.044a.747.747,0,0,0,.313-.313l.036-.039c.452-.363-.034-1,.4-1.37l-.007.014c.193-.2.122-.559.4-.715l-.031.035c.056-.171.209-.273.3-.42l.016-.026c.249-.154.157-.514.405-.67l-.013.02c.182-.214.113-.568.4-.72l-.033.036c.051-.176.205-.28.3-.424l.009-.02c.243-.162.158-.512.392-.679l-.009.013c.194-.2.12-.56.409-.71l-.033.035c.052-.178.2-.282.311-.42l.009-.013a1.211,1.211,0,0,0,.3-.354l.043-.043a.72.72,0,0,0,.313-.313l.044-.044a.73.73,0,0,0,.313-.313l.044-.044a.731.731,0,0,0,.313-.313l.044-.043a.74.74,0,0,0,.313-.313l.045-.046a3.609,3.609,0,0,0,.4-.283l-.017.018c.117-.128.219-.122.3.035l-.012-.009c.412.05.563.393.769.677l-.021-.023A3.234,3.234,0,0,1,299.468,284.132Z" transform="translate(-248.801 -185.602)"/><path class="f" d="M386.106,153.274l-.147,0-.114.1c-.223.147-.526.089-.728.292-.116.018-.228.035-.342.054a8.777,8.777,0,0,1-3.2.007l-.159-.079-.177.016c-.207-.2-.539-.138-.74-.352l0,0a1.026,1.026,0,0,0-.349-.258.18.18,0,0,0-.228-.143.506.506,0,0,1-.446-.41l.045.041a.448.448,0,0,1-.4-.4l.039.038a.446.446,0,0,1-.4-.4l.038.039a.446.446,0,0,1-.394-.4l.037.038a.447.447,0,0,1-.4-.4l.039.039a.448.448,0,0,1-.4-.4l.039.039a.436.436,0,0,1-.392-.4l.046.045c-.341-.086-.241-.487-.468-.653h0a.881.881,0,0,1-.308-.51.135.135,0,0,0-.079-.211c-.176-.235-.143-.548-.3-.792a.705.705,0,0,0-.056-.634,2.35,2.35,0,0,1,.008-1.777.537.537,0,0,0,.065-.559c.217-.375-.019-.887.364-1.213l-.017.033c.157-.23.1-.57.375-.742l-.03.032a.839.839,0,0,1,.381-.388l-.027.027a.869.869,0,0,1,.383-.383l-.026.026a.871.871,0,0,1,.384-.383l-.027.025a.863.863,0,0,1,.382-.383l-.024.027a.864.864,0,0,1,.383-.384l-.027.027a.8.8,0,0,1,.391-.378l-.033.031c.138-.275.509-.184.668-.426l.016-.008a1,1,0,0,1,.511-.291.144.144,0,0,0,.215-.085c.207-.171.521-.1.706-.32h0c.333-.3.812-.073,1.157-.326a4.632,4.632,0,0,0,1.623,0c.34.253.786.064,1.137.274l.572.1a1.228,1.228,0,0,1,.5.239.261.261,0,0,0,.294.095,3.271,3.271,0,0,1,.439.3l.029.018a.748.748,0,0,0,.336.3l.041.041a14.215,14.215,0,0,1,1.749,1.749l.041.042a.6.6,0,0,0,.309.313l.043.044a1.083,1.083,0,0,0,.3.362l0,.01a1.025,1.025,0,0,1,.305.491q0,2.35-.005,4.7a1.022,1.022,0,0,1-.284.53l-.011.022c-.249.154-.158.517-.414.668l.024-.027a1.833,1.833,0,0,1-.339.4h0c-.122.117-.241.235-.353.36l0,0a4.608,4.608,0,0,0-.355.356l0,0a4.711,4.711,0,0,0-.354.354v0a4.368,4.368,0,0,0-.356.355l0,0a4.843,4.843,0,0,0-.354.354l0,0a4.388,4.388,0,0,0-.356.355l0,0c-.126.113-.243.235-.368.349l.006,0A1.014,1.014,0,0,1,386.106,153.274Z" transform="translate(-282.006 -139.773)"/><path class="g" d="M419.718,360.339c.285.075.576.135.855.228.649.216.7.316.46.859-.354.815-.706,1.631-1.068,2.443a10.912,10.912,0,0,0-.852,4.856,5.2,5.2,0,0,0,.78,2.512,9.831,9.831,0,0,0,5.879,4.327,9.228,9.228,0,0,0,5.771.011,5.029,5.029,0,0,0,2.424-1.434,2.059,2.059,0,0,1,1.92-.685.2.2,0,0,1,.076.237c-.032.075-.064.113-.094.113l.012-.01a2.514,2.514,0,0,1-.366.366l.008-.009a1.979,1.979,0,0,1-.366.365l.01-.008a2.016,2.016,0,0,1-.367.366l.01-.01a1.406,1.406,0,0,1-.379.36l.016-.016a1.04,1.04,0,0,1-.385.366l.023-.028c-.163.271-.511.2-.716.39l.012-.007c-.187.237-.515.183-.735.354l.019-.013c-.3.37-.809.105-1.148.363l-.138-.016-.129.05a14.582,14.582,0,0,1-5,0l-.131-.05-.137.017c-.345-.25-.828-.016-1.153-.334h0c-.284-.325-.8,0-1.065-.39l.018.012c-.221-.168-.558-.109-.732-.369l.02.023a1.892,1.892,0,0,1-.39-.335l-.006,0c-.18-.218-.539-.136-.688-.409l.022.027a.92.92,0,0,1-.382-.368l.02.02a1.016,1.016,0,0,1-.377-.376l.02.018a1.008,1.008,0,0,1-.377-.375l.019.019a1.017,1.017,0,0,1-.375-.377l.018.018a1.006,1.006,0,0,1-.376-.375l.02.02a1.03,1.03,0,0,1-.377-.376l.019.019a.991.991,0,0,1-.374-.379l.026.022c-.262-.138-.165-.51-.423-.651l-.022-.035a3.8,3.8,0,0,0-.309-.383l.01.012c-.228-.178-.153-.522-.378-.7l-.005-.008c-.194-.206-.143-.526-.337-.733l.008.015c-.4-.439-.018-1.055-.346-1.509q-.024-.495-.048-.991a2.287,2.287,0,0,1,0-1.771.412.412,0,0,0,.033-.324c.36-.43-.018-1.026.324-1.461a.372.372,0,0,0,.044-.293c.164-.239.125-.559.32-.785l.005-.01c.228-.181.162-.5.342-.706l.01-.018c.364-.259.029-.785.4-1.042l-.011.02A1.571,1.571,0,0,1,419.718,360.339Z" transform="translate(-295.279 -210.367)"/><path class="h" d="M321.437,307.3a.789.789,0,0,1,.828.086c.63.432,1.267.853,1.894,1.292a5.491,5.491,0,0,0,1.492.919,1.539,1.539,0,0,1-.271.439.983.983,0,0,0-.17,1.424,5.587,5.587,0,0,0,.469.537c.409.531.407.695-.1,1.207-.373.381-.788.721-1.183,1.08a1.337,1.337,0,0,0-.3,1.74,3.59,3.59,0,0,0,1.458,1.279.928.928,0,0,0,.992-.07,13.813,13.813,0,0,1,1.556-.862c.757-.358,1.081-.258,1.481.412.212.358.386.738.575,1.108.164.319.32.64.485.955.622,1.19,1.446,2.01,2.939,1.579.807,1.369-.242,2.144-1.055,2.835-1.034.879-1.656,1.693-1.184,3.17A1.935,1.935,0,0,1,330,328.973c-1.278.955-1.281.967-2.847.543a3.481,3.481,0,0,1-2.057-.9c-.165-.2-.421-.152-.656-.077a1.628,1.628,0,0,1-1.736-.57,3.946,3.946,0,0,0-1.327-1.139,1.645,1.645,0,0,1-.825-1.112,15,15,0,0,0-1.616-3.911,6.609,6.609,0,0,0-.693-.8,2.087,2.087,0,0,1-.509-2.719,1.651,1.651,0,0,0,.171-1.165,3.125,3.125,0,0,1,.035-1.055c.2-1.635.468-3.264.611-4.9a2.517,2.517,0,0,1,.77-1.72C320.046,308.747,320.734,308.015,321.437,307.3Z" transform="translate(-263.26 -193.365)"/><path class="h" d="M364.277,310.5a1.672,1.672,0,0,1-.3-.193,1.063,1.063,0,0,0-1.569-.116c-.617.46-1.265.878-1.9,1.321a.641.641,0,0,1-.943-.025,22.274,22.274,0,0,1-3.009-3.325c.371-.462.734-.913,1.093-1.368a1.3,1.3,0,0,0,0-1.65c-.449-.65-.971-1.2-1.919-.859a4.216,4.216,0,0,1-1.063.036,1.608,1.608,0,0,1-1.421-.573,2.07,2.07,0,0,0-.378-.374c-1.265-.856-1.466-2.215-1.7-3.561a1.138,1.138,0,0,1,.631-1.169c1.409-1.54,1.431-1.615,3.453-.993,2.368.73,4.809,1.21,7.122,2.117a1.589,1.589,0,0,0,.853.029,4.451,4.451,0,0,1,4.207,1.761,1.477,1.477,0,0,1,.394,1.629c-.737,1.3-.538,2.77-.934,4.125a3.245,3.245,0,0,1-.892,1.677A7.769,7.769,0,0,1,364.277,310.5Z" transform="translate(-274.048 -190.184)"/><path class="f" d="M328.537,273.111a3.509,3.509,0,0,1,3.84,3.571c.043,1.935-2.248,3.766-3.813,3.806a4.111,4.111,0,0,1-3.575-3.776c.025-1.244.9-2.017,1.543-2.905A2,2,0,0,1,328.537,273.111Z" transform="translate(-265.673 -182.439)"/><path class="i" d="M335.909,335.18a2.789,2.789,0,0,0,.806-3.185,15.976,15.976,0,0,1-.305-1.579,8.479,8.479,0,0,0,1.244-.648c.423-.316.74-.772,1.161-1.093a1.969,1.969,0,0,0,.68-2.045,4.217,4.217,0,0,1,.705,0,2.527,2.527,0,0,1,2.3,3.1,1.53,1.53,0,0,1-.985,1.349,1.694,1.694,0,0,1-.487.193c-1.277.024-1.942.987-2.758,1.737a1.449,1.449,0,0,0-.237,2.167.509.509,0,0,1-.5.361A3.059,3.059,0,0,1,335.909,335.18Z" transform="translate(-269.168 -199.572)"/><path class="f" d="M346.18,278.738a1.959,1.959,0,1,1-3.872-.112,1.937,1.937,0,1,1,3.872.112Z" transform="translate(-271.216 -183.608)"/><path class="f" d="M346.18,278.738a1.959,1.959,0,1,1-3.872-.112,1.937,1.937,0,1,1,3.872.112Z" transform="translate(-248.244 -156.26)"/><path class="j" d="M319.27,328.667a3.5,3.5,0,0,1,1.787,2.852,5.316,5.316,0,0,0,.653,2.171,5.915,5.915,0,0,1-2.388-.479,1.079,1.079,0,0,1-.834-1.021A7.81,7.81,0,0,1,319.27,328.667Z" transform="translate(-263.592 -200.23)"/><path class="k" d="M303.218,332.5c-.107-.391.048-.881-.427-1.131q.2-.509.4-1.016C303.859,331.062,303.563,331.781,303.218,332.5Z" transform="translate(-258.568 -200.769)"/><path class="l" d="M312.092,284.494a.415.415,0,0,1-.375-.4A.515.515,0,0,1,312.092,284.494Z" transform="translate(-261.425 -185.965)"/><path class="e" d="M356,245.264a23.768,23.768,0,0,1-4.049-.832c-5.581-1.363-11.148-2.782-16.716-4.193a24.447,24.447,0,0,1-2.378-.74,1.506,1.506,0,0,1-1.146-1.771,3.009,3.009,0,0,1,.114-.876,9.826,9.826,0,0,1,.872-2.684,6.258,6.258,0,0,1,2.751.33c2.674.5,5.358.941,8.026,1.465,1.741.343,3.461.8,5.194,1.184q4.676,1.032,9.363,2.026a2.769,2.769,0,0,1,1.152.427.565.565,0,0,1,.221.441,21.738,21.738,0,0,1-.875,3.793C357.952,245.238,357.947,245.287,356,245.264Z" transform="translate(-267.822 -169.961)"/><path class="e" d="M333.262,210.945c0-.415.006-.832,0-1.249a2.319,2.319,0,0,1,.573-1.65,24.046,24.046,0,0,1,2.418-2.58,3.28,3.28,0,0,1,3.349-.481,7.24,7.24,0,0,1,4.87,5.032,4.162,4.162,0,0,1-1.4,4.633,7.264,7.264,0,0,1-2.607,1.51,5.958,5.958,0,0,1-6.632-2.128,2.841,2.841,0,0,1-.568-1.661C333.269,211.9,333.263,211.42,333.262,210.945Z" transform="translate(-268.32 -160.565)"/><path class="e" d="M366.323,217.529a5.559,5.559,0,0,1,.287-1.747,3.22,3.22,0,0,1,2.376-2.164,10.958,10.958,0,0,1,1.732-.33,4.779,4.779,0,0,1,4.257,1.737,5.458,5.458,0,0,1,1.3,3.246,4.307,4.307,0,0,1-.912,2.817,6.942,6.942,0,0,1-2.767,2.149,3.218,3.218,0,0,1-2.894-.194,6.113,6.113,0,0,1-2.984-2.922A5.855,5.855,0,0,1,366.323,217.529Z" transform="translate(-278.902 -163.29)"/><path class="f" d="M401.488,227.757a13.2,13.2,0,0,1,1.082-5.374,7.419,7.419,0,0,1,.766-1.4,1.214,1.214,0,0,1,1.049-.58,2.049,2.049,0,0,0,.7-.01c.382-.135.718-.477,1.161-.271a2.587,2.587,0,0,1,1.21,1.261,6.562,6.562,0,0,1,.707,2.38,12.53,12.53,0,0,1-.606,5.448A4.928,4.928,0,0,1,405.469,232c-1.5.853-2.594.545-3.526-1.11a3.636,3.636,0,0,1-.453-1.71C401.481,228.708,401.488,228.232,401.488,227.757Z" transform="translate(-290.155 -165.468)"/><path class="e" d="M368.361,186.48a9.622,9.622,0,0,1,4.1.984,2.7,2.7,0,0,1,1.25,1.424,1.951,1.951,0,0,1-.76,2.645,5.478,5.478,0,0,1-4.084,1.4,5.735,5.735,0,0,1-2.178-.679,3.606,3.606,0,0,1-1.922-4.194,1.268,1.268,0,0,1,.453-.737C366.127,186.557,366.471,186.448,368.361,186.48Z" transform="translate(-278.37 -154.72)"/><path class="m" d="M371.7,365.354a1.913,1.913,0,0,1,1.736.639.382.382,0,0,1,0,.6.463.463,0,0,1-.627.085A2.469,2.469,0,0,1,371.7,365.354Z" transform="translate(-280.624 -211.968)"/><path class="n" d="M376.782,262.025a39.366,39.366,0,0,1,5.227.781,4.087,4.087,0,0,1,1.085.556c.307.15.806.1.876.494.09.512-.5.56-.783.814a.533.533,0,0,1-.792-.071c-.957-1.112-2.389-1.215-3.63-1.722a1.029,1.029,0,0,0-.856.053c-.581.273-.872-.1-1.14-.519a.238.238,0,0,1-.082-.26C376.72,262.067,376.752,262.025,376.782,262.025Z" transform="translate(-282.216 -178.901)"/><path class="o" d="M372.259,261.185c0,.129-.008.258-.012.387a93.278,93.278,0,0,1-9.7-1.956.977.977,0,0,1,.919-.171c2.295.558,4.674.658,6.947,1.319C371.02,260.942,371.745,260.6,372.259,261.185Z" transform="translate(-277.693 -178.061)"/><path class="p" d="M286.114,336.961c-.092.055-.188.164-.265.151-.278-.047-.334-.265-.271-.5.02-.071.169-.169.228-.152A.393.393,0,0,1,286.114,336.961Z" transform="translate(-253.052 -202.723)"/><g transform="translate(0.477 0.269)"><path class="q" d="M402.14,231.405a3.692,3.692,0,0,0,.89,2.1,2.171,2.171,0,0,0,2.573.654,3.807,3.807,0,0,0,2.1-1.835,11.362,11.362,0,0,0,.726-8.633,3.13,3.13,0,0,0-.805-1.367,1.865,1.865,0,0,0-.552-.438.946.946,0,0,0-1.376.44,3.079,3.079,0,0,0,.592.378,2.166,2.166,0,0,1,1.373,1.737,11.033,11.033,0,0,1-.58,6.969,3.118,3.118,0,0,1-1.227,1.486,1.613,1.613,0,0,1-2.506-.742,3.831,3.831,0,0,1-.29-1.017,12.839,12.839,0,0,1,.635-6.121,4.233,4.233,0,0,1,1.468-2.372.253.253,0,0,0,0-.432.5.5,0,0,0-.328-.073,1.827,1.827,0,0,0-1.261,1.153A14.431,14.431,0,0,0,402.14,231.405Z" transform="translate(-290.814 -166.282)"/><path class="r" d="M399.823,210.162a6.124,6.124,0,0,0,1.722-1.2,3.152,3.152,0,0,0,.256-.413c-.041-.084-.052-.156-.089-.173-.1-.045-.228-.117-.316-.088a3.8,3.8,0,0,0-1.833,1.3.283.283,0,0,0-.07.159,1.231,1.231,0,0,0,.052.33C399.59,210.226,399.686,210.241,399.823,210.162Z" transform="translate(-289.996 -161.97)"/><path class="r" d="M338.081,199.366c1.339.485,2.673.992,4.034,1.41a78.439,78.439,0,0,0,11.309,2.434,114.125,114.125,0,0,1,16.8,3.936,75.651,75.651,0,0,0,7.4,1.85.352.352,0,0,0,.279-.154.442.442,0,0,0,.052-.332.9.9,0,0,0-.779-.63,36.677,36.677,0,0,1-3.982-.951c-2.948-.919-5.865-1.926-8.86-2.695-2.936-.751-5.879-1.463-8.869-1.945a114.494,114.494,0,0,1-14.107-2.971c-1.02-.3-2.083-.447-3.031-.644-.31.092-.643-.009-.592.358A.562.562,0,0,0,338.081,199.366Z" transform="translate(-270.23 -158.893)"/><path class="a" d="M376.341,215.768a2.8,2.8,0,0,0-1.133.482c-.864.515-1.743,1.007-2.6,1.542a.687.687,0,0,1-.949-.1c-.685-.655-1.363-1.316-2.053-1.965-.43-.4-.869-.8-1.323-1.177a.557.557,0,0,0-.666-.027.692.692,0,0,0-.286.614,3.007,3.007,0,0,0,.611,1.64c.587.885,1.186,1.762,1.866,2.767-.715.543-1.344.987-1.935,1.478a1.1,1.1,0,0,0-.292,1.426,1.037,1.037,0,0,0,1.252.383,20.024,20.024,0,0,0,2.123-.893.937.937,0,0,1,1.259.217c.281.305.577.6.881.877.612.56,1.227,1.116,1.86,1.65a.7.7,0,0,0,.661.158,1.551,1.551,0,0,0,1.01-2.34,5.593,5.593,0,0,0-.695-.8c-.449-.519-1.4-.818-1.28-1.56.111-.705,1.1-.78,1.637-1.233a3.431,3.431,0,0,1,.452-.281,2.694,2.694,0,0,0,.862-.878,1.28,1.28,0,0,0,.1-1.344A1.4,1.4,0,0,0,376.341,215.768Z" transform="translate(-279.704 -163.937)"/><path class="q" d="M353.611,246.47c1.151.285,2.31.542,3.477.751,1.087.194,1.484-.028,1.944-1.069a15.672,15.672,0,0,0,.683-2.017c.164-.568.269-1.155.384-1.736.054-.272.4-.527.148-.805a2.308,2.308,0,0,0-.728-.473,3.007,3.007,0,0,0-.674-.214c-2.781-.6-5.59-1.092-8.341-1.807-5.406-1.4-10.924-2.219-16.383-3.336-.711-.146-.889-.074-1.072.538a15.59,15.59,0,0,0-.74,3.314c-.025,1.011.156,1.34.979,1.629,1.007.353,2.027.681,3.061.942q8.626,2.163,17.262,4.284Zm-19.916-6.091h0c-.595-.158-.73-.318-.565-.855a13.985,13.985,0,0,1,.763-2.72,8.16,8.16,0,0,1,2.75.419c2.563.494,5.136.953,7.693,1.475,1.512.307,3,.718,4.5,1.064,3.237.752,6.475,1.49,9.711,2.236.439.1.622.347.516.768-.233.92-.508,1.828-.759,2.743-.1.361-.36.425-.931.375-.161-.034-.566-.123-.973-.2-4.546-.878-9-2.137-13.515-3.171-2.835-.651-5.663-1.32-8.5-1.979C334.16,240.476,333.924,240.441,333.695,240.379Z" transform="translate(-268.492 -170.744)"/><path class="a" d="M334.031,214.76a5.785,5.785,0,0,0,2.794-.356c.584-.245,1.159-.893,1.782-.591.547.264.917.9,1.356,1.376a12.05,12.05,0,0,0,2.038,1.98,1.628,1.628,0,0,0,.631.309c.549.075,1.517-.968,1.445-1.536a2.926,2.926,0,0,0-.942-1.649c-2.256-2.371-2.274-1.809.678-3.381.365-.192.762-.331,1.123-.533a5.106,5.106,0,0,0,.871-.611,1.381,1.381,0,0,0,.131-1.919,1.174,1.174,0,0,0-1.549-.485c-.642.3-1.286.609-1.919.932-.845.431-1.673.895-2.523,1.318-.691.345-.823.311-1.363-.3-.434-.488-.825-1.013-1.262-1.5-.554-.617-1.121-1.225-1.712-1.807a2.361,2.361,0,0,0-.749-.456c-.372-.155-.917.309-.791.686a7.723,7.723,0,0,0,.58,1.287c.725,1.288,1.475,2.563,2.209,3.828a6.827,6.827,0,0,1-2.933,2,5.543,5.543,0,0,0-.639.279.494.494,0,0,0-.049.766A1.363,1.363,0,0,0,334.031,214.76Z" transform="translate(-268.74 -161.086)"/><path class="a" d="M344.725,282.773a2.4,2.4,0,0,0,2.269-2.31,2.084,2.084,0,0,0-1.926-1.981,1.95,1.95,0,0,0-2.195,2.032,2.2,2.2,0,0,0,1.851,2.259Zm-.7-2.893h0c.124-.209.34-.322.8-.275a3.49,3.49,0,0,1,.6.313.839.839,0,0,1-.7,1.488A1.074,1.074,0,0,1,344.029,279.881Z" transform="translate(-271.874 -184.437)"/><path class="a" d="M344.725,282.773a2.4,2.4,0,0,0,2.269-2.31,2.084,2.084,0,0,0-1.926-1.981,1.95,1.95,0,0,0-2.195,2.032,2.2,2.2,0,0,0,1.851,2.259Zm-.7-2.893h0c.124-.209.34-.322.8-.275a3.49,3.49,0,0,1,.6.313.839.839,0,0,1-.7,1.488A1.074,1.074,0,0,1,344.029,279.881Z" transform="translate(-248.902 -157.089)"/><path class="a" d="M329.221,282.329a4.13,4.13,0,0,0,3.874-3.923c-.037-2.236-1.579-3.61-3.982-3.609a2.269,2.269,0,0,0-1.932.712c-.725.919-1.658,1.785-1.6,3.084a3.931,3.931,0,0,0,3.636,3.736Zm-1.769-4.833h0c.23-.065.479-.107.552-.364.177-.631.683-.536,1.147-.549a3.364,3.364,0,0,1,1.386.228,1.7,1.7,0,0,1,1.017,2.022,2.4,2.4,0,0,1-4.645-.19C326.839,278.173,326.845,277.667,327.452,277.5Z" transform="translate(-266.34 -183.258)"/><path class="a" d="M382.292,294.248c-1.545-3.831-4.087-6.648-8.217-7.771-.331-.09-.72-.041-.989-.335-.181-.294.016-.563.063-.845a7.122,7.122,0,0,0-.124-3.521c-.241-.732-.374-1.5-.613-2.23q-2.578-7.876-5.645-15.575c-.55-1.378-1.125-2.752-1.6-4.155a179.191,179.191,0,0,0-6.786-17.23,2.289,2.289,0,0,1-.162-1.372c.171-1.176.286-2.361.363-3.547a66.328,66.328,0,0,1,1.206-9.9A2.157,2.157,0,0,0,358.227,225a14.909,14.909,0,0,0-1.733-.405,50.313,50.313,0,0,0-6.016-.7c-.258-.018-.6.092-.756-.256.175-.452.6-.57.963-.722,2.028-.859,3.931-1.96,5.884-2.965a2.919,2.919,0,0,0,1.666-2.151c.27-1.337.6-2.664.945-3.984.876-3.332,1.792-6.654,2.368-10.056.792-4.687,1.707-9.351,2.686-14a93.563,93.563,0,0,0,1.739-9.641,11.025,11.025,0,0,0-.116-4.068,1.6,1.6,0,0,0-1.11-1.282c-1.674-.4-3.232-1.176-4.98-1.335a41.763,41.763,0,0,1-6.157-.982c-2.079-.511-4.176-.925-6.294-1.228-1.764-.252-3.534-.46-5.3-.726-2.706-.408-5.326-1.215-8-1.8-.331-.073-.72-.071-.966-.449.048-.2.09-.434.162-.658a80.484,80.484,0,0,1,3.923-10.13c.1-.215.214-.424.316-.639a.931.931,0,0,1,.992-.595c.177.016.354.048.532.058a7.439,7.439,0,0,0,6.748-3.26,8.342,8.342,0,0,0,1.225-8.1,6.571,6.571,0,0,0-3.74-4.059,8.953,8.953,0,0,0-3.3-.7,6.316,6.316,0,0,0-5.168,2.336,18.24,18.24,0,0,0-1.224,1.749,6.541,6.541,0,0,0-.965,2.092,8.017,8.017,0,0,0,2.125,8.037,1.035,1.035,0,0,1,.247,1.4,60.569,60.569,0,0,0-3.058,7.406c-.472,1.346-.943,2.693-1.378,4.05-.152.477-.4.7-.9.632-.236-.031-.475-.046-.707-.09-2.925-.562-5.9-.724-8.848-1.035a14.766,14.766,0,0,0-3.661.2,29.087,29.087,0,0,0-5.809,1.635c-1.061.383-2.121.781-3.21,1.067a73.743,73.743,0,0,0-10.437,3.581,7.17,7.17,0,0,0-1.537.875,1.346,1.346,0,0,0-.61,1.381,7.28,7.28,0,0,1-.235,2.983,108.205,108.205,0,0,0-1.869,11.248c-.449,4.075-.771,8.164-1.16,12.246-.175,1.833-.3,3.675-.582,5.493-.385,2.525-.875,5.033-1.354,7.541a5.123,5.123,0,0,0-.138,1.588,1.06,1.06,0,0,0,1.255.911,2.688,2.688,0,0,1,1.4.014q4.745,1.213,9.495,2.414a6.733,6.733,0,0,1,.855.25c.224.09.568,0,.661.407a4.274,4.274,0,0,1-.636.339c-2.206.706-4.411,1.421-6.627,2.091a11.8,11.8,0,0,1-3.15.568,1.768,1.768,0,0,0-1.934,1.84,47.49,47.49,0,0,1-.96,6.156,6.239,6.239,0,0,1-.941,2.281c-.878,1.343-1.765,2.684-2.552,4.08a3.3,3.3,0,0,1-1.825,1.535c-2.681,1.053-4.74,2.723-5.128,5.823a1.511,1.511,0,0,1-.923,1.209c-.738.382-1.446.825-2.153,1.261A12.648,12.648,0,0,0,273.509,250a13.722,13.722,0,0,0-1.057,1.429.324.324,0,0,0,.058.305.312.312,0,0,0,.3.039c.334-.34.628-.713.961-1.052a10.23,10.23,0,0,1,5.092-2.776.554.554,0,0,1,.636.17.711.711,0,0,1,.092.825c-.175.311-.362.615-.551.917-3.2,5.083-6.452,10.126-9.873,15.062a1.7,1.7,0,0,1-1.433.819,11.927,11.927,0,0,0-7.177,3.232,7.124,7.124,0,0,0-2.219,3.382c-.082.285-.171.569-.254.855a.678.678,0,0,1-.8.542,14.432,14.432,0,0,1-2.1-.385c-2.217-.666-4.423-1.373-6.627-2.086a5.572,5.572,0,0,1-1.453-.651,1.9,1.9,0,0,0-1.854-.144,57.245,57.245,0,0,1-5.618,1.719,1.062,1.062,0,0,0-.874.993c-.048.354-.069.709-.1,1.066a92.621,92.621,0,0,0-.1,10.686c.068,3.861.3,7.719.452,11.578.08,2.018.131,4.038.239,6.056.167,3.145.507,6.28.481,9.436a20.546,20.546,0,0,0,.1,2.315,1.053,1.053,0,0,0,1.458.993,1.69,1.69,0,0,1,1.354.138,42.77,42.77,0,0,0,7.945,2.606c1.327.316,2.636.713,3.953,1.076a1.762,1.762,0,0,1,.979.694c.725.95.89.98,1.885.308,1.921-1.3,3.809-2.644,5.707-3.976a2.612,2.612,0,0,0,.968-1.029,3.914,3.914,0,0,1,1.619-1.605c1.04-.692,2.094-1.361,3.15-2.026A122.309,122.309,0,0,0,283.521,301.1c.175-.15.381-.354.619-.148a.729.729,0,0,1,.2.458c.187,2.071.354,4.144.538,6.216.4,4.558.824,9.115,1.215,13.673.071.827.006,1.666.052,2.5a1.37,1.37,0,0,0,1.13,1.4c.4.112.815.167,1.225.241a83.377,83.377,0,0,1,14.19,4.095,13.648,13.648,0,0,1,1.466.641.561.561,0,0,1,.23.767h1.784a6.652,6.652,0,0,1,1.706-.919c.773-.445,1.558-.866,2.332-1.306a2.2,2.2,0,0,0,1.16-1.3,3,3,0,0,1,1.148-1.52c.782-.728,1.569-1.457,2.293-2.242,1.974-2.147,4.08-4.158,6.2-6.161a46.722,46.722,0,0,0,8.1-9.217,2.727,2.727,0,0,1,1.351-1.085,35.352,35.352,0,0,0,3.368-1.625c3.106-1.752,6.179-3.557,9.271-5.336,1.339-.771,2.661-1.571,4.035-2.28a4.473,4.473,0,0,0,2.533-3.814c.14-1.42.307-2.837.511-4.248q1.089-7.586,2.219-15.165c.037-.258-.039-.6.444-.725a8.1,8.1,0,0,1,.424.723c.617,1.35,1.259,2.692,1.821,4.064,1.351,3.3,2.689,6.6,3.973,9.926a5.28,5.28,0,0,0,2.533,3.062,3.693,3.693,0,0,1,.582.477,13.664,13.664,0,0,0-1.526,6.194,9.1,9.1,0,0,0,2.786,7.081c3.376,3.234,10.16,4.566,14.674,1.241a12.685,12.685,0,0,0,4.461-6.075,8.723,8.723,0,0,0-.276-6.438Zm-9.826,11.144h0a11.808,11.808,0,0,1-5.688-1.169,6.162,6.162,0,0,1-3.519-5.01,13.1,13.1,0,0,1,.534-6.143.856.856,0,0,1,.9-.685,6.284,6.284,0,0,0,3.647-1.233,7.926,7.926,0,0,0,1.033-.692,2.453,2.453,0,0,1,2.3-.861,7.306,7.306,0,0,1,6.1,2.569,10.474,10.474,0,0,1,2.483,4.46,4.334,4.334,0,0,1-.106,2.788c-.046.109-.061.231-.1.341-1.279,3.552-3.718,5.55-7.572,5.637Zm-25.248-12.7h0c-.379,2.563-.366,2.117-2.126,3.115-2.637,1.5-5.248,3.036-7.867,4.564a12.152,12.152,0,0,1-2.393,1.229,4.428,4.428,0,0,1,.024-1.822c.08-.946.16-1.894.224-2.842.005-.09-.122-.274-.154-.266-.159.037-.41.094-.439.2-.175.626-.305,1.267-.439,1.9-.22,1.046-.424,2.094-.647,3.139-.075.347-.151.709-.539.867-.161.067-.34.211-.479.179-.319-.071-.211-.353-.172-.568a5.257,5.257,0,0,1,.175-.692,7.913,7.913,0,0,0-.59-6.063,7.363,7.363,0,0,0-6.126-4.322,11.254,11.254,0,0,0-7.195,1.48,40.13,40.13,0,0,0-8.027,5.893c-.235.235-.448.58-.88.5-.06-.093-.158-.18-.17-.278-.134-1.061-.291-2.12-.371-3.186a54.75,54.75,0,0,1-.077-8.194,7.6,7.6,0,0,0-.6-2.943,1.578,1.578,0,0,0-1.227-.936c-.976-.26-1.959-.492-2.931-.758-3.724-1.021-7.443-2.053-11.167-3.071q-1.2-.329-2.423-.585c-.823-.174-1.437.47-2.195.615a38.612,38.612,0,0,1-3.968.944c-.324-.22-.184-.517-.141-.8q.682-4.584,1.358-9.169c.085-.587.134-1.181.172-1.774a6.281,6.281,0,0,1,.778-2.9,7.42,7.42,0,0,0,.6-2.744c.671-4.044,1.128-8.119,1.521-12.2a72.06,72.06,0,0,1,1.7-10.01c.173-.719.285-.794.968-.653a10.571,10.571,0,0,1,4.634,2.166,1.477,1.477,0,0,1,.59,1.845c-.426,1.235-.773,2.495-1.12,3.754a86.714,86.714,0,0,0-2.446,13.13c-.392,3.372-1.064,6.687-1.673,10.02a16.864,16.864,0,0,0-.55,3.333,1.225,1.225,0,0,0,.54,1.054c.262.192.539.338.806.142.658-.481,1.142-.255,1.732.185a4.386,4.386,0,0,0,1.514.477c.921.234,1.86.405,2.767.681a90.526,90.526,0,0,0,12.018,2.545c4.988.789,9.979,1.567,14.91,2.675a2.011,2.011,0,0,0,2.746-2.058,38.811,38.811,0,0,1,.443-3.893q.722-4.488,1.476-8.97a5.371,5.371,0,0,1,.274-1.032c.1-.273.347-.284.575-.135a5.2,5.2,0,0,1,1.5,1.508,11.368,11.368,0,0,1,1.639,7.514.578.578,0,0,1-.6.536,4.32,4.32,0,0,0-2.716,1.193,2.857,2.857,0,0,0-.665,2.975,1.9,1.9,0,0,0,2.475,1.141,3.463,3.463,0,0,0,1.669-1.287c.3-.44.581-.893.966-1.486a9.18,9.18,0,0,1,.925.324c1.449.7,1.463.735,1.231,2.308-.391,2.644-.833,5.284-1.157,7.937-.21,1.708-.248,3.436-.359,5.156a.369.369,0,0,0,.233.42c.372.1.336-.239.367-.432.366-2.229.728-4.456,1.067-6.688.286-1.879.54-3.763.815-5.645a1.211,1.211,0,0,1,.394-.832,4.6,4.6,0,0,1,1.433,1.743,9.554,9.554,0,0,1,1.879,6.177c-.02.2.027.354.245.349a.348.348,0,0,0,.241-.2,4.025,4.025,0,0,0,.226-2.1,27.364,27.364,0,0,0-1.034-4.33,8.41,8.41,0,0,0-2.084-3.685,2.134,2.134,0,0,1-.658-2.078c.307-2.057.584-4.118.855-6.181.58-4.419,1.278-8.822,1.668-13.264.188-2.132.49-4.252.743-6.376a.85.85,0,0,1,.093-.337.431.431,0,0,1,.248-.209.311.311,0,0,1,.23.189,41.745,41.745,0,0,0,5.5,11.723,10.046,10.046,0,0,1,.6,1.29c.072.164.112.34.175.505a24.015,24.015,0,0,1,1.454,3.824c.273,1.327-.275,2.694-.385,4.051a43.33,43.33,0,0,1-.385,4.794c-.339,1.747-.515,3.527-.833,5.279-.592,3.278-.925,6.589-1.36,9.887-.024.178-.027.356-.051.534Zm-35.38,29.821h0c-.221-.053-.225-.256-.243-.423q-.369-3.532-.727-7.07c-.235-2.3-.476-4.6-.7-6.895-.074-.759-.09-1.524-.152-2.643a10.269,10.269,0,0,1,3.781,4.176,33.761,33.761,0,0,1,2.326,7.439,1.709,1.709,0,0,1-.531,1.758c-1.146,1.114-2.211,2.311-3.305,3.477a.45.45,0,0,1-.453.181Zm5.149-5.4h0c-.268-1.326-.494-2.664-.825-3.974a24.342,24.342,0,0,0-.911-2.689,11.6,11.6,0,0,0-4.505-5.59c-.1-.066-.194-.135-.289-.206-.849-.641-.885-1.05-.162-1.887.193-.226.4-.436.617-.643.808-.788,1.633-1.558,2.425-2.359a2.744,2.744,0,0,1,3.253-.63,6.691,6.691,0,0,1,2.921,2.25,14.583,14.583,0,0,1,1.709,2.9,30.459,30.459,0,0,1,1.617,4.7,11.777,11.777,0,0,1,.258,1.756,1.384,1.384,0,0,1-.4,1.138,66.781,66.781,0,0,1-5.375,5.19c-.071.059-.221.028-.338.039Zm7.343-7.065h0a.278.278,0,0,1-.437-.11,6.97,6.97,0,0,1-.223-1.039,19.58,19.58,0,0,0-1.08-4.487,16.059,16.059,0,0,0-2.036-3.541,7.934,7.934,0,0,0-3.788-2.841,5.037,5.037,0,0,1-.655-.381,18.91,18.91,0,0,1,4.637-2.608,10.315,10.315,0,0,1,5.962-.22,4.986,4.986,0,0,1,3.26,5.629,13.137,13.137,0,0,1-.79,2.168,33.765,33.765,0,0,1-4.358,6.918,3.079,3.079,0,0,1-.492.511Zm-41.105-11.365h0a24.658,24.658,0,0,0-2.455,1.441c-.88.542-1.252.83-1.448-.577a20.47,20.47,0,0,0-.8-3.1,10.806,10.806,0,0,0-4.514-5.994c-.341-.226-.67-.472-.995-.7a.94.94,0,0,1,.513-.534,51.539,51.539,0,0,1,6.775-2.706,16.343,16.343,0,0,1,2.091-.417.6.6,0,0,1,.757.551,6.4,6.4,0,0,1,.117.878c.239,3.256.46,6.513.715,9.769a1.188,1.188,0,0,1-.759,1.382Zm-19.769,12.2h0c-.225-1.285-.428-2.574-.648-3.859-.549-3.219-.885-6.463-1.148-9.714-.037-.47.215-.682.646-.555a7.616,7.616,0,0,1,4.329,2.938,13.139,13.139,0,0,1,2.387,6.74c0,.35,0,.647,0,.942a1.173,1.173,0,0,1-.553,1.048c-1.45.926-2.892,1.862-4.344,2.785a.44.44,0,0,1-.667-.324Zm-6.879,5.733h0a1.508,1.508,0,0,1-.4-1.14c-.086-2.078-.235-4.154-.264-6.231-.067-4.638-.392-9.26-.68-13.886-.23-3.679-.594-7.345-.881-11.018-.1-1.243-.279-2.479-.454-3.715a4.081,4.081,0,0,0-.325-1.014.582.582,0,0,0-.562-.362c-.305.008-.372.243-.374.489a6.981,6.981,0,0,0,.041,1.067c.4,2.7.653,5.422.847,8.146.326,4.563.65,9.128.922,13.695.241,4.093.412,8.188.61,12.283.012.231-.029.466-.06.929-1.865-.471-3.581-.936-5.314-1.329-2.2-.5-4.409-.957-6.62-1.41a.776.776,0,0,1-.714-.849c-.007-.891.014-1.785-.034-2.674-.209-3.916-.464-7.829-.649-11.745-.1-2.2-.06-4.4-.172-6.6-.155-3.026-.219-6.054-.543-9.072-.247-2.3-.341-4.623-.5-6.935a3.287,3.287,0,0,1,.015-.713.382.382,0,0,1,.508-.339c.456.124.9.3,1.348.449,2.474.842,4.94,1.7,7.42,2.52,1.093.363,1.778.267,1.708-.147-.129-.757-.83-.774-1.362-.953-1.858-.619-3.732-1.193-5.6-1.785-.169-.055-.332-.124-.5-.187-.139-.052-.2-.153-.144-.277.046-.1.109-.225.2-.26.662-.26,1.331-.5,2-.751a2.359,2.359,0,0,1,1.405-.005,78.7,78.7,0,0,1,8.025,2.368c.279.1.555.214.821.341A2.6,2.6,0,0,1,257.932,278c.153,5.167.742,10.309.863,15.484a87.345,87.345,0,0,0,.851,10.118c.447,3.179.913,6.351,1.58,9.49a1.152,1.152,0,0,1-.482,1.385c-1.14.751-2.256,1.541-3.384,2.312-.317.215-.558.036-.783-.173Zm6.177-45.879h0a23.854,23.854,0,0,1,4.683-2.552.329.329,0,0,1,.494.3c.018.653-.01,1.307-.008,1.96a6.614,6.614,0,0,0,1.867,4.679,16.393,16.393,0,0,0,2.674,2.346,6.126,6.126,0,0,0,2.585,1.128,5.29,5.29,0,0,1,.74.227,3.287,3.287,0,0,1-1.472,1.764,10.636,10.636,0,0,1-10.543.613c-4.154-1.91-4.3-8.184-1.022-10.47Zm31.662-44.017h0a5.342,5.342,0,0,1,1.042.2c2.533.643,5.048,1.366,7.6,1.924,3.481.762,6.995,1.372,10.482,2.1,8.141,1.7,16.268,3.453,24.323,5.527.862.22,1.744.356,2.623.5.211.035.524.035.541-.293a.6.6,0,0,0-.231-.423,5.4,5.4,0,0,0-2.113-.9c-4.047-.951-8.084-1.947-12.144-2.829-5.571-1.212-11.134-2.472-16.753-3.46-3.8-.668-7.6-1.365-11.34-2.333-.513-.133-1.026-.272-1.616-.429a1.533,1.533,0,0,1,1.03-.623c2.662-.839,5.329-1.66,7.985-2.522a12.062,12.062,0,0,0,2.464-1.011,2.723,2.723,0,0,1,2.38-.243c.279.09.562.167.908.271a3.482,3.482,0,0,1-.2,1.732,10.013,10.013,0,0,0-.251,2.12,1.5,1.5,0,0,0,.83,1.469,12.9,12.9,0,0,0,2.107.945c3.453,1.094,6.927,2.121,10.469,2.891,1.973.426,3.954.819,5.931,1.226.291.062.577.142.87.185a2.477,2.477,0,0,0,2.973-1.879,8.409,8.409,0,0,0,.369-3.428c1.427.2,2.668.369,3.46,1.635.312.5.56.513,1.055.184,1.834-1.222,3.806-2.2,5.731-3.257a2.641,2.641,0,0,1,2.2-.244,68.552,68.552,0,0,0,8.836,2.077c.162.026.394.061.343.3a.7.7,0,0,1-.289.393c-1.4.893-2.848,1.728-4.218,2.667a27.784,27.784,0,0,1-3.6,2.306,6.112,6.112,0,0,0-1.133.849.44.44,0,0,0-.128.313.506.506,0,0,0,.161.268c.026.028.12.016.169-.007a24.82,24.82,0,0,0,3.8-1.926,35.389,35.389,0,0,1,4.266-2.587,1.787,1.787,0,0,1,1.1-.362c.3,1.441-.225,2.861-.265,4.3a26.028,26.028,0,0,1-.459,4.553c-.912-.521-1.752-.939-2.527-1.455a4.117,4.117,0,0,0-3.578-.524,9.287,9.287,0,0,0-5.931,5.023,5.757,5.757,0,0,1-.974,1.88c.06-.668.12-1.2.151-1.726s.044-1.07.046-1.605c0-.475,0-.951-.044-1.422a.534.534,0,0,0-.248-.4c-.349-.1-.352.212-.365.423-.309,5.226-1.058,10.4-1.728,15.588q-1.311,10.163-2.617,20.33c-.091.705-.244,1.4-.4,2.258-.287-.084-.456-.137-.628-.181a1.805,1.805,0,0,1-1.5-2.189,13.124,13.124,0,0,0-.908-5.227,8.311,8.311,0,0,0-3.351-4.477,1.2,1.2,0,0,1-.587-1.484c.371-1.56.67-3.138,1.074-4.689a35.943,35.943,0,0,0,.891-5.088,3.3,3.3,0,0,1,.464-1.485,1.614,1.614,0,0,0-1.1-2.449,5.408,5.408,0,0,0-.888-.063,25.574,25.574,0,0,1-6.14-1.012,67.446,67.446,0,0,0-11.846-2.477c-.235-.026-.473-.054-.706-.092a.483.483,0,0,1-.433-.633,7.084,7.084,0,0,1,9.771-5.639,2.941,2.941,0,0,1,.555.369c-.1.655-.694.844-1,1.269a2.753,2.753,0,0,0-.341,3.014,1.465,1.465,0,0,0,2.242.616,3.309,3.309,0,0,0,1.664-2.78c.038-.8.245-.948.989-.8a11.183,11.183,0,0,1,6,2.9,3.058,3.058,0,0,0,.38.371.325.325,0,0,0,.294.031c.073-.062.141-.242.1-.309a3.711,3.711,0,0,0-.6-.864c-2.113-1.971-4.375-3.675-7.405-3.908a1.293,1.293,0,0,1-.941-.43c-1.876-2.169-6.249-2.094-8.772-.408a8.774,8.774,0,0,0-3.8,5.2c-.091.345-.143.7-.234,1.042-.137.522-.335.7-.9.631-1.239-.15-2.482-.3-3.7-.553-1.509-.317-2.994-.745-4.491-1.125a8.334,8.334,0,0,0-1.212-.289A5.339,5.339,0,0,1,296.7,242a8.806,8.806,0,0,0-4.1-2.416c-.394-.133-.792-.252-1.188-.379a.528.528,0,0,1-.384-.685c.058-.29.1-.587.154-.878q1.01-4.976,2.026-9.953c.161-.787.424-1.008,1.2-.969Zm-1.309-10.846h0c-.828-.129-.927-.243-.808-1.019.134-.881.258-1.767.464-2.632A63.6,63.6,0,0,0,294,203.4c.377-4.082.725-8.167,1.133-12.248.178-1.771.45-3.535.723-5.3.355-2.293.587-4.6.736-6.911.018-.3.053-.592.1-.885.082-.5.309-.635.709-.372a16.6,16.6,0,0,0,3.651,1.388.871.871,0,0,0,.513-.031.406.406,0,0,0,.222-.25.39.39,0,0,0-.044-.321,1.331,1.331,0,0,0-.408-.33c-.422-.221-.863-.4-1.279-.631-.691-.381-1.665-.271-2.057-1.174a5.03,5.03,0,0,1,2-1.031,31.624,31.624,0,0,1,5.228-1.756c2.073-.539,4.1-1.206,6.111-1.938.447-.163.876-.383,1.333-.506a16.884,16.884,0,0,0,5.62-2.616,1.171,1.171,0,0,1,1.161-.175,77.745,77.745,0,0,0,9.39,2.761.507.507,0,0,1,.437.65,12.394,12.394,0,0,0-.3,3.542c.032.466.016.99.61,1.157.465.131.913-.145,1.181-.853.4-1.053.707-2.14,1.069-3.207.186-.552.383-.7.908-.59,1.335.28,2.672.569,3.995.905a63.407,63.407,0,0,0,8.581,1.576,71.591,71.591,0,0,1,8.412,1.515,41.44,41.44,0,0,0,5.622.912,10.123,10.123,0,0,1,3.476.949,39.593,39.593,0,0,1-3.686,2.861c-.722.523-1.448,1.042-2.142,1.6a7.74,7.74,0,0,0-1,1.012c-.261.3-.3.926-.093.975.344.082.5-.214.734-.379.624-.453,1.242-.921,1.894-1.333a39.257,39.257,0,0,0,3.933-2.771c.27-.22.582-.39.865-.578.4.256.2.546.15.791-1.21,6.117-2.465,12.225-3.625,18.351-.63,3.326-1.085,6.685-1.926,9.971-.619,2.415-1.233,4.831-1.9,7.233-.206.743-.051,1.68-.611,2.194-.483.442-1.312.489-1.951.784-1.617.747-3.232,1.5-4.815,2.321-2.268,1.173-4.507,2.4-6.76,3.6a1.752,1.752,0,0,1-.987.358,2.141,2.141,0,0,1-.045-1.56c.471-2.873.893-5.756,1.49-8.6,1.183-5.646,2.073-11.334,2.782-17.054.139-1.119.368-2.227.534-3.343a5.484,5.484,0,0,0,.028-1.062c-.008-.165-.071-.392-.3-.356a.734.734,0,0,0-.418.258,3.366,3.366,0,0,0-.539,1.494c-.165.815-.271,1.642-.392,2.465-.611,4.172-1.134,8.361-1.856,12.514-.6,3.449-1.4,6.867-1.915,10.332-.237,1.588-.413,3.181-.628,4.772-.077.564-.269.7-.842.58a16.659,16.659,0,0,1-1.724-.439,44.191,44.191,0,0,0-6.919-1.662c-4.29-.672-8.467-1.857-12.688-2.844-4.453-1.042-8.9-2.124-13.423-2.82-3.287-.5-6.593-.883-9.89-1.315-.354-.045-.711-.065-1.063-.12ZM335.5,145.237h0a1.476,1.476,0,0,1,.446-.536,6.908,6.908,0,0,1,7.083-.449,3.705,3.705,0,0,1,1.711,2.6,5.78,5.78,0,0,1-1.384,4.8,3.339,3.339,0,0,1-1.964,1.139c-.577.126-1.174.163-1.52.207-2.436,0-3.939-.876-4.608-2.72a6.9,6.9,0,0,1,.237-5.039Zm-2.884,81.519h0c-.2.8-.36,1.484-.558,2.158a.619.619,0,0,1-.821.453c-1.975-.414-3.953-.8-5.928-1.21a106.365,106.365,0,0,1-10.466-2.851c-.865-.273-.891-.366-.889-1.28a7.066,7.066,0,0,1,.054-.889c.014-.1.109-.2.211-.375,2.019.293,4,.885,6.013,1.355,2.08.485,4.15,1.008,6.241,1.454,2.021.432,4.059.787,6.145,1.184Zm24.758,20.872h0a29.461,29.461,0,0,0-10.773,6.143,8.8,8.8,0,0,1-1.522-3.755,10.554,10.554,0,0,1,.611-5.775,12.471,12.471,0,0,1,2.292-3.993,2.48,2.48,0,0,1,1.883-.845,4.479,4.479,0,0,1,3.383,1.271,16.106,16.106,0,0,1,3.94,5.866,1.4,1.4,0,0,1,.185,1.089Zm-33.476,8.029h0c-.616-.723-1.263-1.42-1.885-2.138a1.312,1.312,0,0,0-1.407-.533.914.914,0,0,1-.175.035c-2.359.175-2.581-.057-2.419-2.559a7.35,7.35,0,0,1,2.223.509c1.777.468,3.546.974,5.325,1.437a.907.907,0,0,1,.779.828,3.084,3.084,0,0,0,3.042,2.778c.222,1.051-.336,1.962-.468,3.079-1.484-.541-1.484-.541-2.676.267-.3.2-.592.4-.885.6-.927.646-.912.686-1.728-.224-.458-.511-.445-.617.024-1.2.112-.139.245-.26.355-.4.786-1.022.775-1.457-.1-2.482Zm-4,22.349h0a3.3,3.3,0,0,1-.67.061q-4.309-.708-8.614-1.437a7.892,7.892,0,0,1-1.031-.274c-.267-.083-.324-.326-.343-.567a.431.431,0,0,1,.362-.515,6.833,6.833,0,0,0,2.832-1.448,3.542,3.542,0,0,0,1.125-4.751,4.932,4.932,0,0,0-5.165-3.022c-.838.179-1.165-.149-1.481-.821a9.782,9.782,0,0,0-1.876-2.8.708.708,0,0,0-.953-.151c-.77.45-1.55.883-2.325,1.322a.427.427,0,0,1-.621-.084.529.529,0,0,1,.027-.781c.477-.528.951-1.06,1.391-1.619a1.2,1.2,0,0,0,.093-1.628,1.787,1.787,0,0,1-.322-.625,1.048,1.048,0,0,1,.938-1.4q1.414-.195,2.835-.321c.895-.078,1.037.046,1.179.895.02.117.012.237.033.354.16.885.4,1.136,1.254,1.2.65.05,1.308.021,1.959.077A1.817,1.817,0,0,0,312.5,258.5c.1-.214.142-.451.4-.573a13.631,13.631,0,0,1,3.058.87c.49.183.97.39,1.416.57a3,3,0,0,1-.549,1.578,1.436,1.436,0,0,0,.363,1.918,9.168,9.168,0,0,1,2.635,3.538c.435.987.617,1.012,1.826.8.586-.1.788.006.861.56.078.587.1,1.184.138,1.776a.712.712,0,0,1-.563.779,7.16,7.16,0,0,0-.889.566,1.492,1.492,0,0,0-.756,1.134,10.626,10.626,0,0,1-.958,2.863,2.379,2.379,0,0,0,.407,3.133Zm-16.52-6.194h0c.144.635.334,1.261.481,1.895a5.074,5.074,0,0,1,.105.881c.028.558-.2.77-.957.683-.176-.046-.579-.148-.978-.256-1.035-.281-1-.281-.945-1.4a7.919,7.919,0,0,0-4.2-7.848c-1.932-1.072-1.555-.618-1.378-2.707.13-1.536.39-3.06.606-4.587a3.079,3.079,0,0,1,.25-.836.642.642,0,0,1,1.019-.311c.75.477,1.488.974,2.2,1.505,1.981,1.469,2.192,1.352.069,3.06-.906.73-.925,1.373-.146,2.249.2.221.41.429.624.636a1.292,1.292,0,0,0,1.76.227,19.336,19.336,0,0,1,1.915-.94.478.478,0,0,1,.621.182,15.344,15.344,0,0,1,2.162,4.461.58.58,0,0,1-.444.816c-.513.139-1.038.234-1.559.358-1.129.267-1.464.795-1.206,1.934Zm-3.643,1.263h0a3.629,3.629,0,0,1-.128.693.517.517,0,0,1-.507.406.71.71,0,0,1-.619-.278,1.452,1.452,0,0,1-.169-.492c-.133-.574-.254-1.151-.377-1.728a5.272,5.272,0,0,0-2.366-3.394c-.861-.57-.851-.592-.586-1.55a1.5,1.5,0,0,1,.135-.325c.025-.049.086-.078.131-.116,3.281.836,4.765,4.43,4.486,6.785ZM329.4,254.628h0c-.511-.3-1.014-.615-1.5-.954a.588.588,0,0,1-.227-.439c.027-.345.322-.267.544-.244.646.061,1.29.137,1.9.2a1.442,1.442,0,0,1-.061,1.1c-.093.371-.365.509-.653.338Zm-6.574-12.421h0a.427.427,0,0,1,.332-.043c.081.043.105.194.156.3-.033.747-.312,1.229-.859,1.367-.124.032-.415-.115-.43-.209a1.292,1.292,0,0,1,.8-1.413Zm-35.349-.439h0c.026.061.076.12.067.169q-.524,2.78-1.056,5.559c-.138-.026-.284-.007-.341-.07-.441-.471-1.092-.9-1.237-1.453-.176-.68.55-1.233.883-1.842s.719-1.221,1.089-1.826c.143-.233.268-.5.595-.538Zm-1.311,8.641h0c-.178,1.754-.319,3.217-.477,4.677-.037.347-.137.687-.2.976-.477.3-.734-.054-1-.224a11.884,11.884,0,0,1-3.231-2.988c-.445-.607-.421-.759.012-1.4.3-.445.622-.4,1.056-.213a2.941,2.941,0,0,0,3.019-.337c.186-.131.392-.237.814-.487Zm-2.016-.982h0a3.753,3.753,0,0,1-.484.1c-.722.022-.932-.292-.7-.764a2.652,2.652,0,0,1,.17-.3c.357-.554.791-.587,1.253-.1.4.425.3.894-.237,1.059Zm-.263-8.08h0c.052-.022.125.011.2.048-.033-.129-.007-.121.069.032l.033.016,0,0h0l.008,0-.011,0-.028-.007c-.66,1.116-1.317,2.236-1.987,3.347a.948.948,0,0,1-.852.542c-.252,0-.532-.069-.465-.362a4.747,4.747,0,0,1,3.026-3.617ZM280.311,253.3h0c.56.657,1.038,1.261,1.561,1.824a7.276,7.276,0,0,0,2.727,1.939c.835.319.841.39.734,1.158-.23,1.643-.482,3.283-.7,4.928a4.424,4.424,0,0,1-.844,2.3,5.153,5.153,0,0,0-.526.928c-.558,1.1-.624,1.374-2.053.842a29.882,29.882,0,0,1-4.325-2.064,6.891,6.891,0,0,1-1.678-1.3c-1.21-1.327-1.165-1.194-.292-2.534,1.552-2.383,3.092-4.777,4.645-7.159a1.929,1.929,0,0,1,.749-.856ZM261.4,292.233h0c-.088-1.72-.134-3.443-.218-5.163-.061-1.24-.16-2.479-.239-3.7.464-.24.7.1.974.275a12.428,12.428,0,0,0,6.752,1.96,9.283,9.283,0,0,0,3.647-.732c2.326-.978,4.5-2.181,5.856-4.444a4.3,4.3,0,0,0,.753-1.6,3.576,3.576,0,0,1,1.382-2.335,22.685,22.685,0,0,0,1.893-2.312,34.537,34.537,0,0,1-1.029,7.794,1.745,1.745,0,0,1-1.365,1.423,51.762,51.762,0,0,0-12.631,6.124c-1.393.9-2.706,1.937-4.053,2.914a4.565,4.565,0,0,1-1.339.869c-.467-.233-.362-.7-.381-1.077Zm12.045-28.7h0a3.132,3.132,0,0,1,.468.392,10.748,10.748,0,0,0,6.048,3.834c.458.121.917.243,1.372.378.664.2.781.414.467,1.03a24.963,24.963,0,0,1-2.972,4.846,3.841,3.841,0,0,1-4.825.853,9.416,9.416,0,0,1-2.85-2.647,3.55,3.55,0,0,1-.66-2,6.322,6.322,0,0,1,.927-3.744c.635-1,1.337-1.952,2.025-2.944Zm-3.37,43.69h0c-.247-.247-.131-.551-.128-.832a12.569,12.569,0,0,0-2.277-7,8.568,8.568,0,0,0-4.087-3.316c-.32-.131-.713-.118-.949-.493-.077-.382.307-.443.519-.564,2.523-1.444,5.067-2.856,7.587-4.305a1.44,1.44,0,0,1,1.5-.028,10.176,10.176,0,0,1,4.511,4.417,27.907,27.907,0,0,1,1.854,5,1.547,1.547,0,0,1-.675,1.976c-2.327,1.539-4.6,3.156-6.906,4.734a1.5,1.5,0,0,1-.949.418Zm62.556-28.56h0a.723.723,0,0,1-.786.57c-.095,0-.271-.109-.266-.151a.729.729,0,0,1,.16-.456.625.625,0,0,1,.8-.1c.042.029.059.09.09.138Zm14.822-23.2h0c-.42-.7-.392-.832.182-1.371a20.1,20.1,0,0,1,3.46-2.5,27.344,27.344,0,0,1,5.822-2.65c.949-.3,1.157-.22,1.5.657,1.191,3.039,2.357,6.087,3.531,9.13.105.275.2.558.3.855-.115.156-.186.337-.32.414a12.209,12.209,0,0,1-1.112.556,54.544,54.544,0,0,1-7.4,2.55,10.911,10.911,0,0,0-1.36.4c-.477.211-.688-.053-.813-.393a44.573,44.573,0,0,0-3.789-7.646Zm5.748,8.772h0A28.277,28.277,0,0,0,362.009,261c.4-.256.657-.155.825.274.969,2.487,1.939,4.972,2.888,7.466.265.693.165.938-.428,1.365a6.175,6.175,0,0,1-.752.474,38.762,38.762,0,0,1-5.7,2.5,14.733,14.733,0,0,1-2.076.486c-.793.139-.925.079-1.275-.62a83.779,83.779,0,0,1-3.629-8.315c.551-.16.942-.294,1.34-.39Zm3.438,11.132h0c-.118-.3-.147-.639.229-.713a18.619,18.619,0,0,0,3.261-.866c1.1-.44,2.2-.88,3.269-1.391,1-.483,1.966-1.059,2.946-1.592a4.564,4.564,0,0,1,.788,1.785c.731,1.939,1.408,3.9,2.114,5.849a.866.866,0,0,1-.264,1.106,21.885,21.885,0,0,1-7.532,3.9,6.753,6.753,0,0,1-.878.15.718.718,0,0,1-.853-.461c-.281-.717-.547-1.439-.831-2.156q-1.12-2.807-2.249-5.61Zm3.7,9.315h0a18.994,18.994,0,0,0,8.007-3.313c.346-.229.664-.5,1.018-.719.2-.122.483-.167.59.135.254.725.513,1.453.7,2.2a2.969,2.969,0,0,1-.078,1.582,6.608,6.608,0,0,1-6.536,4.549,2.6,2.6,0,0,1-2.578-1.806c-.289-.832-.688-1.625-1.121-2.627Zm-58.021,7.409h0a57.325,57.325,0,0,1,.659,7.988c.041,1.3.228,2.6.345,3.9q.278,3.108.553,6.217c.051.592.126,1.184.135,1.779.066,4.048.594,8.057.97,12.081a16,16,0,0,1,.133,2.771,1.6,1.6,0,0,1-1.144-.194,86.7,86.7,0,0,0-14.5-4.313c-.629-.12-.759-.3-.789-.981-.16-3.981-.636-7.937-.991-11.9-.29-3.256-.5-6.523-.868-9.769-.447-3.895-1.025-7.774-1.549-11.662-.071-.53-.159-1.058-.224-1.589a.817.817,0,0,1,.252-.808c.8-.615.76-1.407.281-2.468a55.477,55.477,0,0,1,8.31,2.672c1.331.512,2.642,1.072,3.964,1.606,1.7.685,2.709.777,2.578.357-.311-1.01-1.28-1.335-2.109-1.726-2.1-.989-4.29-1.744-6.466-2.541-.553-.2-1.276-.117-1.587-.808a2.746,2.746,0,0,1,1.886.206c2.523.688,5.027,1.439,7.545,2.139,1.889.526,3.792,1,5.682,1.516.808.222.823.248.834,1.1.017,1.607.05,3.212,0,4.817a51.291,51.291,0,0,0,.393,5.691c.293,3.734.655,7.46,1.029,11.186.441,4.375.923,8.745,1.405,13.116a7.716,7.716,0,0,0,.419,2.091c.363.878.006,1.308-.677,1.737-.551.349-1.021.816-1.556,1.192-.233.165-.457.031-.522-.244a6.373,6.373,0,0,1-.138-.877c-.347-3.609-.733-7.215-1.016-10.827-.175-2.252-.175-4.513-.443-6.761-.324-2.715-.582-5.437-.867-8.155q-.3-2.836-.581-5.673a23.456,23.456,0,0,0-.8-3.651.309.309,0,0,0-.415-.207c-.078.028-.144.182-.15.284A2.907,2.907,0,0,0,302.32,292.093Z" transform="translate(-238.454 -140.169)"/></g></g></g><g transform="translate(0 16.969)"><path class="a" d="M283.239,283.682a1.06,1.06,0,1,1,0-2.119h8.592a1.06,1.06,0,1,1,0,2.119Z" transform="translate(-237.633 -202.122)"/><path class="a" d="M275.98,281.563a1.06,1.06,0,1,1,0,2.119H273.8a1.06,1.06,0,1,1,0-2.119Z" transform="translate(-234.61 -202.122)"/><path class="a" d="M333.746,170.069a1.06,1.06,0,0,1,0-2.12h20.841a1.06,1.06,0,1,1,0,2.12Z" transform="translate(-253.798 -165.76)"/><path class="a" d="M326.489,167.949a1.06,1.06,0,0,1,0,2.12H324.3a1.06,1.06,0,1,1,0-2.12Z" transform="translate(-250.775 -165.76)"/><path class="a" d="M250.3,289.9a3.8,3.8,0,1,1-2.689,6.491l-.061-.067a3.8,3.8,0,0,1,.061-5.31l.068-.062a3.786,3.786,0,0,1,2.62-1.052Zm1.189,2.612a1.685,1.685,0,0,0-2.338-.043l-.041.043a1.691,1.691,0,0,0-.044,2.339l.044.04a1.681,1.681,0,0,0,2.378,0h0a1.689,1.689,0,0,0,0-2.379Z" transform="translate(-226.212 -204.79)"/><path class="a" d="M309.336,172.883A3.786,3.786,0,0,1,312.019,174l0,0a3.8,3.8,0,0,1,0,5.374l-.068.061A3.8,3.8,0,0,1,306.647,174l0,0a3.791,3.791,0,0,1,2.684-1.114Zm1.189,2.608a1.692,1.692,0,0,0-2.379,0l0,0a1.688,1.688,0,0,0,0,2.38v0a1.692,1.692,0,0,0,2.338.039l.041-.043a1.689,1.689,0,0,0,0-2.38Z" transform="translate(-245.107 -167.339)"/><path class="a" d="M443.069,221.339a3.8,3.8,0,0,1,2.688,6.489l-.067.062a3.8,3.8,0,1,1-2.621-6.551Zm1.189,2.608a1.689,1.689,0,0,0-2.378,0h0a1.685,1.685,0,0,0,2.342,2.423l.041-.044a1.681,1.681,0,0,0,0-2.38Z" transform="translate(-287.91 -182.847)"/><path class="a" d="M272.141,229.357a1.06,1.06,0,0,1,2.119,0v8.866a1.06,1.06,0,1,1-2.119,0Z" transform="translate(-234.42 -185.075)"/><path class="a" d="M275.546,234.818a1.06,1.06,0,1,1,0,2.119h-8.865a1.06,1.06,0,1,1,0-2.119Z" transform="translate(-232.333 -187.161)"/><path class="a" d="M410.675,165.788a1.059,1.059,0,1,1,2.119,0v8.866a1.059,1.059,0,1,1-2.119,0Z" transform="translate(-278.759 -164.729)"/><path class="a" d="M414.081,171.248a1.06,1.06,0,1,1,0,2.12h-8.866a1.06,1.06,0,0,1,0-2.12Z" transform="translate(-276.672 -166.815)"/><path class="a" d="M439.063,267.306a1.059,1.059,0,0,1,1.5,1.5l-6.269,6.269a1.06,1.06,0,0,1-1.5-1.5Z" transform="translate(-285.739 -197.46)"/><path class="a" d="M440.562,273.576a1.059,1.059,0,0,1-1.5,1.5l-6.269-6.27a1.059,1.059,0,1,1,1.5-1.5Z" transform="translate(-285.739 -197.46)"/><path class="a" d="M223.184,323.333a1.06,1.06,0,0,1,2.12,0V332.2a1.06,1.06,0,1,1-2.12,0Z" transform="translate(-218.751 -215.152)"/><path class="a" d="M226.591,328.793a1.06,1.06,0,0,1,0,2.12h-8.866a1.06,1.06,0,1,1,0-2.12Z" transform="translate(-216.664 -217.239)"/><path class="a" d="M402.765,393.131a1.06,1.06,0,1,1,0,2.12h-8.592a1.06,1.06,0,0,1,0-2.12Z" transform="translate(-273.138 -237.831)"/><path class="a" d="M413.039,395.251a1.06,1.06,0,1,1,0-2.12h2.185a1.06,1.06,0,0,1,0,2.12Z" transform="translate(-279.176 -237.831)"/><path class="a" d="M439.612,322.927a3.8,3.8,0,0,1,2.689,6.487l0,0a3.794,3.794,0,0,1-5.37,0l0,0a3.8,3.8,0,0,1,0-5.373l.067-.061a3.784,3.784,0,0,1,2.62-1.053Zm1.19,2.608a1.692,1.692,0,0,0-2.338-.039l-.041.044a1.689,1.689,0,0,0,0,2.379l0,0a1.69,1.69,0,0,0,2.379,0l0,0a1.687,1.687,0,0,0,0-2.379Z" transform="translate(-286.804 -215.361)"/></g></g><text class="s" transform="translate(12 116.67)"><tspan x="0" y="0">Oops!</tspan></text></svg>