<svg class="img-fluid imgPopup" xmlns="http://www.w3.org/2000/svg" width="160.607" height="117.938" viewBox="0 0 160.607 117.938">
                <g id="Group_2" data-name="Group 2" transform="translate(-1238 -468)">
                  <path id="Path_4904" data-name="Path 4904" d="M802.922,840.241l-34.669.34c-10.243,0-18.546-7.315-18.546-16.338h0a15.235,15.235,0,0,1,4.733-10.9,20.038,20.038,0,0,1,15.7-5.268l34.829,3.019,3.613,18.3Z" transform="translate(505.248 -282.82)" fill="#fff"/>
                  <path id="Path_4904-2" data-name="Path 4904" d="M755.371,840.241l34.669.34c10.243,0,18.546-7.315,18.546-16.338h0a15.235,15.235,0,0,0-4.733-10.9,20.038,20.038,0,0,0-15.7-5.268l-34.825,3.015-3.613,18.3Z" transform="translate(520.77 -282.82)" fill="#fff"/>
                  <path id="Path_4905" data-name="Path 4905" d="M826.088,710.487c-2.971-8.725-20.037-16.654-29.491-16.654h-.309v-5.415a4.5,4.5,0,0,0,2.634-5.154,5.015,5.015,0,0,0-9.6,0,4.5,4.5,0,0,0,2.634,5.154v5.415h-1.329c-5.192,0-12.42,2.387-18.356,5.989-4.875,2.963-8.871,6.733-10.14,10.67-9.915,2.619-17.537,10.022-19.933,19.359a25.408,25.408,0,0,0,8.38,25.664c.173,1.762,1.427,17.628-8.67,23.438,12.831,3.485,23.337-3.721,28.752-8.7a33.758,33.758,0,0,0,18.844,6.612h10.507a30.525,30.525,0,0,0,16.216-5.234c3.786-2.552,6.75-5.879,7.829-9.594,12.871-2.462,22.268-12.8,22.751-25.034s-8.076-23.186-20.72-26.52Zm-7.76,44.931H769.921c-11.492,0-20.809-8.678-20.809-19.384s9.316-19.384,20.809-19.384h48.406c11.493,0,20.809,8.678,20.809,19.384s-9.316,19.382-20.809,19.382Z" transform="translate(499.386 -194.492)" fill="#fff" stroke="#262a41" stroke-width="1"/>
                  <ellipse id="Ellipse_127" data-name="Ellipse 127" cx="5.839" cy="5.839" rx="5.839" ry="5.839" transform="translate(1325.145 567.197)" fill="#f3bb23"/>
                  <ellipse id="Ellipse_128" data-name="Ellipse 128" cx="2.357" cy="2.357" rx="2.357" ry="2.357" transform="translate(1336.824 563.786)" fill="#f3bb23"/>
                  <ellipse id="Ellipse_128-2" data-name="Ellipse 128" cx="2.357" cy="2.357" rx="2.357" ry="2.357" transform="translate(1250.051 509.029)" fill="#f3bb23"/>
                  <ellipse id="Ellipse_589" data-name="Ellipse 589" cx="4.507" cy="4.507" rx="4.507" ry="4.507" transform="translate(1270.477 537.663)" fill="#262a41"/>
                  <ellipse id="Ellipse_590" data-name="Ellipse 590" cx="4.507" cy="4.507" rx="4.507" ry="4.507" transform="translate(1301.867 537.663)" fill="#262a41"/>
                  <path id="Path_4906" data-name="Path 4906" d="M816.088,710.487c-2.971-8.725-20.037-16.654-29.491-16.654h-.309v-5.415a4.5,4.5,0,0,0,2.634-5.155,5.015,5.015,0,0,0-9.6,0,4.5,4.5,0,0,0,2.634,5.155v5.415h-1.329c-5.192,0-12.42,2.387-18.356,5.989-4.875,2.963-8.871,6.733-10.14,10.67-9.915,2.619-17.537,10.023-19.933,19.359a25.409,25.409,0,0,0,8.38,25.664c.173,1.762,1.427,17.627-8.67,23.438,12.831,3.485,23.337-3.721,28.752-8.7a33.759,33.759,0,0,0,18.844,6.612h10.507a30.527,30.527,0,0,0,16.216-5.234c3.786-2.552,6.75-5.879,7.829-9.594,12.871-2.462,22.268-12.8,22.751-25.034S828.732,713.818,816.088,710.487Zm-7.76,44.931H759.921c-11.493,0-20.809-8.678-20.809-19.384s9.316-19.384,20.809-19.384h48.406c11.493,0,20.809,8.678,20.809,19.384s-9.316,19.382-20.809,19.382Z" transform="translate(506.554 -194.492)" fill="#f3bb23"/>
                  <path id="Path_2" data-name="Path 2" d="M119.018,16.042h-41.8a6.391,6.391,0,0,0-6.383,6.383V47.446a6.391,6.391,0,0,0,6.383,6.389h1.99v9.918a1.015,1.015,0,0,0,1.688.759l12.04-10.677h26.08a6.391,6.391,0,0,0,6.381-6.389V22.425a6.389,6.389,0,0,0-6.383-6.383Z" transform="translate(1273.209 456.018)" fill="#e6e7e8"/>
                  <path id="Path_9" data-name="Path 9" d="M73.2,48.8a5.368,5.368,0,0,1-5.368-5.369V18.41A5.369,5.369,0,0,1,73.2,13.042H115a5.369,5.369,0,0,1,5.369,5.368V43.43A5.368,5.368,0,0,1,115,48.8H88.536L76.208,59.732V48.8Z" transform="translate(1273.164 455.974)" fill="#262a41"/>
                  <path id="Path_13" data-name="Path 13" d="M115.018,12.042h-41.8a6.391,6.391,0,0,0-6.383,6.383V43.446a6.391,6.391,0,0,0,6.383,6.389h1.99v9.918a1.015,1.015,0,0,0,1.688.759l12.04-10.677h26.08a6.391,6.391,0,0,0,6.381-6.389v-5.2a1.016,1.016,0,1,0-2.03,0v5.2a4.36,4.36,0,0,1-4.353,4.355H88.552a1.011,1.011,0,0,0-.673.255L77.24,57.491V48.815A1.015,1.015,0,0,0,76.224,47.8h-3a4.359,4.359,0,0,1-4.353-4.355V18.425a4.359,4.359,0,0,1,4.353-4.353h41.8a4.358,4.358,0,0,1,4.353,4.353v5.122a1.016,1.016,0,1,0,2.03,0V18.425a6.392,6.392,0,0,0-6.385-6.383Z" transform="translate(1273.149 455.958)" fill="#fff"/>
                  <g id="Group_1" data-name="Group 1" transform="translate(249 -5)">
                    <path id="Path_15" data-name="Path 15" d="M25.582,15.1,22.8,17.886A16.4,16.4,0,0,0,5.1,21.5l1.651,1.651a14.092,14.092,0,0,1,14.214-3.431l-1.909,1.909a11.6,11.6,0,0,0-10.628,3.2l1.651,1.651a9.309,9.309,0,0,1,6.888-2.734l-2.838,2.838a6.791,6.791,0,0,0-2.4,1.574l.413.413L9.15,31.506l.9.9L26.485,16Z" transform="translate(1102 467.9)" fill="#fff"/>
                    <path id="Path_16" data-name="Path 16" d="M43.6,76.5l1.651,1.651L46.9,76.5A2.3,2.3,0,0,0,43.6,76.5Z" transform="translate(1073.431 422.858)" fill="#fff"/>
                    <path id="Path_17" data-name="Path 17" d="M46.6,60.57a4.7,4.7,0,0,1,4.2,1.29l1.651-1.651A7,7,0,0,0,48.9,58.3Z" transform="translate(1071.205 435.844)" fill="#fff"/>
                    <path id="Path_18" data-name="Path 18" d="M62.8,45.78a9.431,9.431,0,0,1,3.328,2.141l1.651-1.651A11.329,11.329,0,0,0,64.58,44Z" transform="translate(1059.184 446.455)" fill="#fff"/>
                    <path id="Path_19" data-name="Path 19" d="M78.2,30.6l-1.7,1.7a14.147,14.147,0,0,1,3.121,2.347L81.272,33A17.95,17.95,0,0,0,78.2,30.6Z" transform="translate(1049.018 456.398)" fill="#fff"/>
                  </g>
                </g>
              </svg>