<svg xmlns="http://www.w3.org/2000/svg" width="430.63" height="269.139" viewBox="0 0 430.63 269.139"><defs><style>.a{fill:#111422;}.b,.c,.d,.e,.f{fill:#1a1d2d;}.c,.d,.e,.f{stroke:#1a1d2d;}.ac,.ad,.d,.e,.h,.m,.r,.u,.v{opacity:0.5;}.ac,.ad,.ae,.ah,.d,.h,.k,.m,.t,.w{mix-blend-mode:multiply;}.aa,.ab,.ac,.ad,.ae,.af,.ah,.ai,.ak,.d,.e,.h,.i,.k,.m,.n,.o,.r,.t,.u,.v,.w,.x{isolation:isolate;}.aa,.ab,.af,.ai,.ak,.e,.i,.n,.o,.r,.u,.v,.x{mix-blend-mode:screen;}.aa,.ai,.ak,.f,.o,.q,.r,.u{stroke-linecap:round;}.aj,.f{stroke-miterlimit:10;}.g,.h,.i{fill:#262a41;}.ak,.i{opacity:0.3;}.ae,.af,.j{fill:#fff;}.ae,.k,.w{opacity:0.2;}.l{fill:#243544;}.n{fill:#222b35;}.aa,.ai,.ak,.o,.q,.r,.u{fill:none;stroke-linejoin:round;}.o,.q{stroke:#222b35;}.aa,.aj,.o,.r,.u{stroke-width:2px;}.p,.x{fill:#848484;}.r{stroke:#848484;}.s{fill:#efefef;}.t{opacity:0.1;}.u{stroke:#5ec6ef;}.v{fill:#5ec6ef;}.ad,.aj,.y{fill:#f3bb23;}.z{fill:#f27d17;}.aa{stroke:#dd4747;}.aa,.ab,.af{opacity:0.8;}.ab{fill:#dd4747;}.ag{fill:#4e5265;}.ah,.ai{opacity:0.7;}.ai,.ak{stroke:#a9e5f7;}.ai{stroke-width:5px;}.aj{stroke:#f3bb23;}.ak{stroke-width:4px;}</style></defs><g transform="translate(-54.99 -212.497)"><path class="a" d="M376.65,445.3c15.225,11.217-17.137,14.255-34.44,13.62-20.5-.644-25.788,10.093-46.3,8.8-8.969-.634-47.9-2.076-58.152-2.076-11.534,0-32.518,2.4-45.811,3.681-10.256-.644-23.714-6.248-17.628-15.7-8.968-1.288-12.65,0-20.185.481-14.707.932-59.259,6.036-33.277-14.62a152.489,152.489,0,0,1,21.03-13.564c30.3-16.618,74.474-32.064,101.321-32.535,24.991,0,52.222,1.6,75.935,10.573,13.937,5.038,29.268,10.429,45.627,14.783a275.36,275.36,0,0,0,33.355,6.844C430.8,430.089,397.162,445.949,376.65,445.3Z" transform="translate(3.936 12.301)"/><path class="b" d="M353.34,440.662c-4.489,6.084-31.4,2.884-52.223,6.728-17.648,3.258-35.247-4.489-53.192-1.922-14.735,1.278-35.883,10.573-49.982,4.806-5.768-2.566,4.806-10.256-1.6-12.822-10.256-4.479-22.753-1.278-31.721-1.922-8.449-.461-23.981-2.488-24.587-9.594,30.3-16.618,74.474-32.064,101.321-32.535,24.991,0,52.222,1.6,75.935,10.573,13.937,5.038,29.268,10.429,45.627,14.783-3.969,3.374-11.86,2.355-14.705,2.355C352.061,423.034,357.829,434.578,353.34,440.662Z" transform="translate(5.783 12.301)"/><g transform="translate(277.01 212.497)"><g transform="translate(23.168 22.355)"><path class="c" d="M340.4,233.615c-10.647.969-57.726,90.266-55.776,180.9,0,0-.256,4.172,6.853,4.959,8.443.933,9.059-2.722,9.059-2.722s-7.254-24.008,7.321-84.62C325.816,257.458,351.05,232.647,340.4,233.615Z" transform="translate(-284.568 -233.418)"/><path class="d" d="M307.607,332.129c-14.572,60.61-7.324,84.617-7.324,84.617s-.614,3.661-9.051,2.721a13.2,13.2,0,0,1-2.937-.628c7.609.6,8.179-2.8,8.179-2.8s-7.247-24.009,7.324-84.617c15.442-64.206,36.253-91.538,35.021-97.332a3.3,3.3,0,0,1,1.329-.469C350.8,232.649,325.563,257.453,307.607,332.129Z" transform="translate(-284.315 -233.418)"/><path class="e" d="M287.956,416.149c2.111.538,2.755-.767,2.755-.773,1.1-122.708,51.772-182.455,50.212-181.944-9.184,3-56.453,90.574-54.5,181.206A2.05,2.05,0,0,0,287.956,416.149Z" transform="translate(-284.446 -233.429)"/><path class="f" d="M309.017,286.935c3.723.685,7.136,3.036,10.158,5.818.208.2.408.39.618.585m-5.674-19.346a15.967,15.967,0,0,1,9.891,5.79m5.9-14.676c-2.453-2.766-5.4-4.946-8.692-5.5m9.521,6.464-3.974-16.607a11.063,11.063,0,0,1,8,4.9m-1.019-15.711c3.343.442,4.79,1.42,6.572,4.165m-36.288,57.639A17.73,17.73,0,0,1,314.6,306.9M296.367,325.29a19.79,19.79,0,0,1,12.182,3.688m-9.271-13.836c4.364-.027,8.624,1.018,11.765,4.192m-25.208,63.111c4.272-.4,9.136,1.174,13.26,3.365m-11.312-19.483c4.332-1.254,9.1-.121,13.052,2.2m-16.257,37.628a33,33,0,0,1,14.707,2.683M284.926,394.87a41.257,41.257,0,0,1,13.806,2.753m-6.692-54.632a17.244,17.244,0,0,1,12.384,4.342" transform="translate(-284.567 -233.074)"/></g><path class="g" d="M342.138,236.108a111.654,111.654,0,0,0-32.369-2.18c-13.957,1.031-51.469,19.3-46.432-4.468C269.924,198.363,338.631,215.743,342.138,236.108Z" transform="translate(-262.874 -212.497)"/><path class="h" d="M342.141,235.016a111.825,111.825,0,0,0-32.368-2.181c-13.251.977-47.722,17.5-46.881-1.174.219,2.985,1.649,4.935,5.892,4.853,3.769-.073,11.171-5.581,14.477-1.854,2.957,3.334,11.765-3.754,18.746-5.506,5.01-1.256,5.529,1.664,7.237,1.766,7.555.452,12.515-2.862,17.832-2.329C336.515,229.537,341.923,233.746,342.141,235.016Z" transform="translate(-262.874 -211.407)"/><path class="i" d="M275.308,219.649c-16.372,16.111,27.385,4.33,32.86,4.016,6.754-.237,15.44-.989,22.046,2.044C321.557,219.17,283.352,211.732,275.308,219.649Z" transform="translate(-262.277 -212.243)"/><g transform="translate(78.962 0.794)"><path class="g" d="M336.811,236.481a94.374,94.374,0,0,1,27.155-3.9c11.836-.02,44.634,12.994,38.871-6.729C395.3,200.045,338.471,219.083,336.811,236.481Z" transform="translate(-336.809 -213.24)"/><path class="h" d="M336.809,235.5a94.56,94.56,0,0,1,27.154-3.9c11.236-.021,41.356,11.71,39.459-3.979,0,2.53-1.077,4.267-4.66,4.467-3.185.178-9.776-3.993-12.327-.641-2.279,3-10.161-2.414-16.159-3.445-4.305-.74-4.555,1.755-5.989,1.95-6.341.864-10.734-1.614-15.186-.826C341.2,230.522,336.913,234.416,336.809,235.5Z" transform="translate(-336.809 -212.263)"/><path class="i" d="M391.061,218.382c14.832,12.54-22.818,5.4-27.452,5.483-5.713.231-13.085.152-18.462,3.13C352.03,220.931,383.771,212.22,391.061,218.382Z" transform="translate(-336.242 -213.034)"/></g><g transform="translate(79.588 21.849)"><path class="g" d="M337.395,235.213c7.574,5.7,17.313,11.016,25.2,20.855,8.512,10.62,9.9,17.973,15.677,26.619,5.248,7.853,14.194,13.206,21.14,9.77,17.61-8.708,6.308-28.761-2.533-38.694C382.138,237.209,348.457,228.545,337.395,235.213Z" transform="translate(-337.395 -232.955)"/><path class="i" d="M382.682,247.928c7.245,4.66,18.288,12.171,16.965,22.2-1.012,8.847-6.049,8.544-11.5,3.163-7.033-7.162-9.308-17.408-17.57-24.163-7.12-5.722-16.062-9.147-24.27-12.769C346.3,236.359,369.469,239.433,382.682,247.928Z" transform="translate(-336.789 -232.723)"/><path class="h" d="M408.674,278.819c-3.221,10.065-11.575,13.9-16.268,7.6-.188-.252-.451-.529-.679-.879-1.639-2.516-3.564-7.676-5.873-8.2-3.012-.682-6.4-.484-7.734-4.355-1.9-5.516-1.967-16.681-7.19-15.6-1.128.235-1.394,1.889-1.837,2.22-1.887,1.456-3.614-2.855-4.645-5.883v-.01c-.355-1-.622-1.867-.785-2.329-2.13-5.78-5.2-5.1-9.477-7.048-6.079-2.771-16.478-9.453-16.788-9.269,4.4,3.316,9.538,6.5,14.614,10.515a64.977,64.977,0,0,1,10.579,10.34c8.512,10.62,9.9,17.973,15.68,26.62,4.267,6.39,10.983,11.126,17.078,10.816a10.169,10.169,0,0,0,4.058-1.047C406.037,289.043,408.564,284.158,408.674,278.819Z" transform="translate(-337.395 -232.811)"/></g></g><g transform="translate(118.806 252.481)"><g transform="translate(54.258 19.428)"><path class="c" d="M167.526,268.255c8.556.459,48.9,70.578,50.025,143.216,0,0,.33,3.332-5.341,4.173-6.733,1-7.335-1.911-7.335-1.911s5.1-19.44-8.37-67.548C179.914,286.917,158.971,267.8,167.526,268.255Z" transform="translate(-165.547 -268.118)"/><path class="d" d="M196.5,346.186c13.465,48.1,8.372,67.546,8.372,67.546s.6,2.912,7.33,1.912a10.625,10.625,0,0,0,2.335-.592c-6.077.707-6.634-2-6.634-2S213,393.61,199.535,345.5c-14.268-50.961-31.743-72.233-30.927-76.909a2.629,2.629,0,0,0-1.079-.336C158.971,267.8,179.913,286.913,196.5,346.186Z" transform="translate(-165.546 -268.118)"/><path class="e" d="M214.745,412.883c-1.675.495-2.23-.531-2.231-.536-4.512-98.235-46.866-144.582-45.6-144.219,7.443,2.131,47.892,70.862,49.013,143.5A1.636,1.636,0,0,1,214.745,412.883Z" transform="translate(-165.455 -268.126)"/><path class="f" d="M185.661,315.488c.163-.165.318-.326.48-.488,2.337-2.317,5-4.3,7.961-4.961m-12.217-5.283a12.8,12.8,0,0,1,7.748-4.93m-6.111-11.31a12.534,12.534,0,0,0-6.8,4.661m-.634.8-3.569-9.256a8.859,8.859,0,0,1,6.26-4.16m-11.048-4.922a6.229,6.229,0,0,1,5.139-3.531M190.222,326.2a14.223,14.223,0,0,1,8.276-5.48m-2.776,22.977a15.869,15.869,0,0,1,9.646-3.314m-11.93-4.335c2.422-2.635,5.8-3.6,9.3-3.7m2.238,56.587c3.239-1.878,7.088-3.282,10.52-3.086m-12.424-10.706a13.592,13.592,0,0,1,10.386-2.147m-7.951,34.384a26.432,26.432,0,0,1,11.7-2.585m-11.589-6.411a33.1,33.1,0,0,1,10.975-2.614m-17.023-37.491a13.833,13.833,0,0,1,9.789-3.846" transform="translate(-165.398 -267.856)"/></g><g transform="translate(56.058)"><path class="g" d="M167.235,270.357a89.521,89.521,0,0,1,25.856-2.706c11.209.412,41.791,13.935,37.054-4.952C223.949,237.991,169.44,253.943,167.235,270.357Z" transform="translate(-167.232 -249.935)"/><path class="h" d="M167.232,269.443a89.55,89.55,0,0,1,25.856-2.706c10.64.391,38.735,12.6,37.51-2.329-.088,2.4-1.175,4-4.575,4.063-3.021.051-9.112-4.14-11.649-1.058-2.269,2.758-9.533-2.657-15.175-3.852-4.049-.859-4.379,1.5-5.743,1.628-6.037.587-10.106-1.92-14.351-1.336C171.576,264.886,167.371,268.418,167.232,269.443Z" transform="translate(-167.232 -249.022)"/><path class="i" d="M219.237,255.217c13.589,12.417-21.8,4.278-26.2,4.19-5.416.01-12.4-.334-17.6,2.29C182.185,256.2,212.56,249.115,219.237,255.217Z" transform="translate(-166.673 -249.736)"/></g><g transform="translate(2.7 3.427)"><path class="g" d="M170.883,270.468a75.623,75.623,0,0,0-21.862-2.323c-9.478.334-35.359,11.73-31.327-4.237C122.967,243.022,169.04,256.585,170.883,270.468Z" transform="translate(-117.272 -253.144)"/><path class="h" d="M170.886,269.692a75.791,75.791,0,0,0-21.862-2.322c-9,.315-32.773,10.6-31.717-2.019.07,2.026.988,3.387,3.863,3.441,2.556.047,7.711-3.489,9.852-.88,1.916,2.337,8.067-2.234,12.838-3.238,3.426-.719,3.7,1.27,4.854,1.385,5.105.5,8.549-1.611,12.138-1.112C167.22,265.836,170.77,268.826,170.886,269.692Z" transform="translate(-117.272 -252.37)"/><path class="i" d="M126.038,257.595c-11.507,10.482,18.432,3.648,22.146,3.578,4.582.015,10.483-.267,14.877,1.959C157.369,258.479,131.692,252.445,126.038,257.595Z" transform="translate(-116.854 -252.975)"/></g><g transform="translate(0 19.316)"><path class="g" d="M170.559,269.534c-5.9,4.791-13.539,9.334-19.561,17.445-6.5,8.76-7.395,14.687-11.765,21.783-3.971,6.444-10.977,11-16.64,8.45-14.361-6.452-5.9-22.846.882-31.063C134.786,272.456,161.5,264.521,170.559,269.534Z" transform="translate(-114.743 -268.022)"/><path class="i" d="M133.784,281.076c-5.665,3.945-14.286,10.288-12.928,18.281,1.072,7.055,5.1,6.663,9.305,2.191,5.421-5.943,6.939-14.216,13.355-19.87,5.531-4.794,12.592-7.8,19.057-10.945C162.574,270.734,144.114,273.882,133.784,281.076Z" transform="translate(-114.337 -267.837)"/><path class="h" d="M114.77,306.585c2.878,7.964,9.682,10.786,13.253,5.6.142-.207.344-.436.519-.723,1.238-2.065,2.626-6.252,4.46-6.74,2.391-.638,5.111-.578,6.064-3.717,1.357-4.474,1.081-13.417,5.3-12.7.912.153,1.174,1.471,1.538,1.723,1.555,1.11,2.81-2.393,3.546-4.848v-.009c.254-.814.441-1.512.56-1.888,1.534-4.692,4.01-4.237,7.381-5.925,4.787-2.4,12.916-8.058,13.168-7.92-3.429,2.787-7.446,5.491-11.391,8.855A52.133,52.133,0,0,0,151,286.883c-6.5,8.76-7.4,14.688-11.768,21.783-3.227,5.245-8.466,9.236-13.355,9.17a8.163,8.163,0,0,1-3.282-.72C117.185,314.695,115.017,310.857,114.77,306.585Z" transform="translate(-114.742 -267.926)"/></g></g><g transform="translate(205.791 262.041)"><g transform="translate(94.94 26.553)"><g transform="translate(0 7.396)"><path class="j" d="M294.268,293.575h-7.734a1.45,1.45,0,0,1,0-2.9h7.734a1.45,1.45,0,0,1,0,2.9Z" transform="translate(-285.085 -290.674)"/></g><g transform="translate(6.657)"><path class="j" d="M300.379,296.912a4.532,4.532,0,0,0-3.159-4.317,4.53,4.53,0,1,0-5.9-4.316v8.633a4.53,4.53,0,0,0,9.061,0Zm-7.288-8.633a2.758,2.758,0,1,1,2.758,2.755A2.762,2.762,0,0,1,293.091,288.279Zm0,8.633a2.758,2.758,0,1,1,2.758,2.757A2.761,2.761,0,0,1,293.091,296.912Z" transform="translate(-291.318 -283.749)"/></g><g class="k" transform="translate(0.144 0.443)"><path d="M298.878,287.432a4.531,4.531,0,0,1-3.158,4.317,4.479,4.479,0,0,1,1.391.74,4.509,4.509,0,0,0,.363-8.325A4.509,4.509,0,0,1,298.878,287.432Z" transform="translate(-284.506 -284.164)"/><path d="M294.61,292.726a2.749,2.749,0,0,0-.888,5.353,2.733,2.733,0,0,1,2.978-4.373A2.742,2.742,0,0,0,294.61,292.726Z" transform="translate(-284.769 -283.582)"/><path d="M297.679,292.241a4.517,4.517,0,0,1-5.045,7.363,4.523,4.523,0,1,0,5.045-7.363Z" transform="translate(-284.716 -283.615)"/><path d="M294.61,284.643a2.749,2.749,0,0,0-.888,5.353,2.73,2.73,0,0,1-.669-1.777,2.762,2.762,0,0,1,2.758-2.759,2.728,2.728,0,0,1,.889.16A2.747,2.747,0,0,0,294.61,284.643Z" transform="translate(-284.769 -284.131)"/><path d="M291.733,292.624h-6.408c-.036,0-.068-.009-.1-.011a1.446,1.446,0,0,0,1.3.83h5.209Z" transform="translate(-285.22 -283.589)"/></g></g><g transform="translate(18.461 64.292)"><path class="l" d="M232.752,328.723a9.639,9.639,0,1,1-9.639-9.637A9.639,9.639,0,0,1,232.752,328.723Z" transform="translate(-213.475 -319.086)"/><path class="m" d="M227.1,319.9a8.349,8.349,0,0,1,3.187,6.583,8.159,8.159,0,1,1-16.315,0,8.513,8.513,0,0,1,.076-1.074A9.635,9.635,0,1,0,227.1,319.9Z" transform="translate(-213.475 -319.031)"/><path class="n" d="M221.586,321.493a.869.869,0,1,1-.868-.867A.869.869,0,0,1,221.586,321.493Z" transform="translate(-213.042 -318.981)"/><g transform="translate(60.929 1.941)"><path class="l" d="M270.525,330.543a9.639,9.639,0,1,0,9.639-9.64A9.638,9.638,0,0,0,270.525,330.543Z" transform="translate(-270.525 -320.903)"/><path class="m" d="M276.174,321.72a8.351,8.351,0,0,0-3.188,6.583,8.159,8.159,0,1,0,16.315,0,8.515,8.515,0,0,0-.076-1.075,9.635,9.635,0,1,1-13.051-5.508Z" transform="translate(-270.525 -320.847)"/><path class="o" d="M286.7,329.515c.012-1.183-1.287-4.574-3.382-5.276" transform="translate(-269.655 -320.676)"/><path class="n" d="M280.576,323.312a.868.868,0,1,0,.867-.867A.867.867,0,0,0,280.576,323.312Z" transform="translate(-269.842 -320.798)"/></g></g><g transform="translate(19.5 114.494)"><g transform="translate(44.743)"><path class="p" d="M256.342,370.944c5.208,1.4,12.935,8.022,11.964,31.791-.171,4.211-1.714,9.288,3.592,9.655,4.021.279,7.137-.161,7.717-2.472,3.1-12.319-1.936-38.491-19.262-43.826" transform="translate(-256.342 -366.091)"/><g class="k" transform="translate(0 0.701)"><path d="M256.434,370.53l-.092.112c.125.033.251.073.378.112C256.624,370.678,256.529,370.6,256.434,370.53Z" transform="translate(-256.342 -366.49)"/><path d="M261.879,366.747c12.839,8.58,16.46,30.28,13.723,41.168-.57,2.271-3.59,2.733-7.508,2.485.523,1.078,1.535,1.815,3.427,1.945,4.021.279,7.137-.161,7.717-2.472C282.217,398.017,277.663,373.347,261.879,366.747Z" transform="translate(-255.965 -366.747)"/></g><path class="q" d="M262.3,375.1a4.243,4.243,0,0,1,6.922-3.544" transform="translate(-255.938 -365.787)"/><path class="q" d="M266.048,382.892c-.468-3.505,4.687-6.7,8.545-3.915" transform="translate(-255.684 -365.287)"/><path class="q" d="M267.4,390.9c.791-4.395,8.469-5.934,11.2-.727" transform="translate(-255.59 -364.677)"/><path class="q" d="M267.618,398.513c3.059-4.25,10.409-3.052,12.047,3.306" transform="translate(-255.575 -364.057)"/><path class="r" d="M260.46,370.974s9.261,3.192,9.737,28.043" transform="translate(-256.062 -365.759)"/><path class="s" d="M289.6,410.833c0,5.469-31.306,5.469-31.306,0s2.945-13.384,12.05-13.49C282.7,397.2,289.6,405.363,289.6,410.833Z" transform="translate(-256.21 -363.966)"/><path class="t" d="M289.593,410.584c0,5.467-31.3,5.467-31.3,0a15.274,15.274,0,0,1,3.221-9.551,14.136,14.136,0,0,0-.923,4.985c0,4.667,26.705,4.667,26.705,0a6.8,6.8,0,0,0-.258-1.807A10.763,10.763,0,0,1,289.593,410.584Z" transform="translate(-256.21 -363.715)"/><path class="u" d="M261.619,405.962a6.9,6.9,0,0,1,4.088-5.6" transform="translate(-255.983 -363.76)"/><path class="v" d="M262.564,408.233a1.133,1.133,0,1,1-1.133-1.134A1.133,1.133,0,0,1,262.564,408.233Z" transform="translate(-256.073 -363.303)"/></g><g transform="translate(9.255)"><path class="p" d="M247.245,370.944c-5.21,1.4-12.936,8.022-11.966,31.791.171,4.211,1.715,9.288-3.591,9.655-4.021.279-7.136-.161-7.718-2.472-3.094-12.319,1.937-38.491,19.265-43.826" transform="translate(-223.114 -366.091)"/><g class="k" transform="translate(0 0.701)"><path d="M245.64,370.53l.093.112c-.125.033-.253.073-.38.112C245.449,370.678,245.544,370.6,245.64,370.53Z" transform="translate(-221.602 -366.49)"/><path d="M241.332,366.747c-12.841,8.58-16.461,30.28-13.725,41.168.569,2.271,3.591,2.733,7.509,2.485-.522,1.078-1.535,1.815-3.427,1.945-4.021.279-7.136-.161-7.718-2.472C220.992,398.017,225.546,373.347,241.332,366.747Z" transform="translate(-223.114 -366.747)"/></g><path class="q" d="M240.189,375.1a4.243,4.243,0,0,0-6.921-3.544" transform="translate(-222.423 -365.787)"/><path class="q" d="M236.548,382.892c.468-3.505-4.689-6.7-8.545-3.915" transform="translate(-222.781 -365.287)"/><path class="q" d="M235.365,390.9c-.791-4.395-8.469-5.934-11.2-.727" transform="translate(-223.043 -364.677)"/><path class="q" d="M235.2,398.513c-3.059-4.25-10.41-3.052-12.048,3.306" transform="translate(-223.111 -364.057)"/><path class="r" d="M242.21,370.974s-9.261,3.192-9.738,28.043" transform="translate(-222.477 -365.759)"/></g><path class="s" d="M245.754,410.833c0,5.469-31.306,5.469-31.306,0s2.946-13.384,12.049-13.49C238.859,397.2,245.754,405.363,245.754,410.833Z" transform="translate(-214.448 -363.966)"/><path class="t" d="M245.753,410.663c0,5.467-31.3,5.467-31.3,0,0-3.488,1.2-7.967,4.427-10.792A13.318,13.318,0,0,0,217,406.735c0,4.582,26.2,4.582,26.2,0a7.737,7.737,0,0,0-.991-3.565A11.435,11.435,0,0,1,245.753,410.663Z" transform="translate(-214.448 -363.794)"/><path class="u" d="M217.777,405.962a6.9,6.9,0,0,1,4.089-5.6" transform="translate(-214.222 -363.76)"/><path class="v" d="M218.723,408.233a1.133,1.133,0,1,1-1.133-1.134A1.134,1.134,0,0,1,218.723,408.233Z" transform="translate(-214.311 -363.303)"/></g><path class="p" d="M208.5,265.656c-2.6,7.825-2.085,29.18,1.356,29.462,3.326.276,7.148.617,8.751,0s1.726-2.836,0-2.836-7.6-.474-7.974-1.653C208.045,282.41,209.978,261.219,208.5,265.656Z" transform="translate(-195.465 -258.468)"/><path class="w" d="M218.513,292.283c-1.727,0-7.6-.474-7.974-1.653-2.589-8.219-.656-29.411-2.134-24.973-.059.177-.114.371-.171.561.455,2.624-.511,18.367,1.638,25.189.373,1.18,6.248,1.654,7.974,1.654a1.191,1.191,0,0,1,1.088,1.832C220.119,294.085,220.071,292.283,218.513,292.283Z" transform="translate(-195.371 -258.468)"/><path class="x" d="M219.077,293.374c-1.6.616-5.425.272-8.75,0-3.214-.265-3.88-18.915-1.828-27.749-2.6,7.831-2.083,29.172,1.357,29.454,3.326.276,7.148.617,8.751,0a1.76,1.76,0,0,0,1.159-2.148A2.034,2.034,0,0,1,219.077,293.374Z" transform="translate(-195.465 -258.429)"/><g transform="translate(17.754 22.568)"><path class="y" d="M219.457,280.046c-3.67,0-6.644,5.349-6.644,11.946s2.974,11.947,6.644,11.947,11.686,1.192,11.686-11.947S223.125,280.046,219.457,280.046Z" transform="translate(-212.813 -280.018)"/><path class="z" d="M222.7,280.072c-3.515.311-6.312,5.518-6.312,11.916s2.8,11.607,6.312,11.919c3.778-.311,8.195-2.167,8.195-11.919S226.482,280.382,222.7,280.072Z" transform="translate(-212.57 -280.014)"/><g transform="translate(1.443 1.523)"><path class="aa" d="M216.075,283.626a14.746,14.746,0,0,0-1.9,8.12" transform="translate(-214.164 -281.296)"/><path class="ab" d="M217.609,282.195a.749.749,0,1,1-.749-.751A.749.749,0,0,1,217.609,282.195Z" transform="translate(-214.032 -281.444)"/></g><g transform="translate(63.295)"><path class="y" d="M283.764,280.046c3.671,0,6.643,5.349,6.643,11.946s-2.972,11.947-6.643,11.947-11.686,1.192-11.686-11.947S280.094,280.046,283.764,280.046Z" transform="translate(-272.078 -280.018)"/><path class="z" d="M280.273,280.072c3.515.311,6.312,5.518,6.312,11.916s-2.8,11.607-6.312,11.919c-3.779-.311-8.195-2.167-8.195-11.919S276.494,280.382,280.273,280.072Z" transform="translate(-272.078 -280.014)"/><g transform="translate(13.309 1.523)"><path class="aa" d="M286.1,283.626a14.746,14.746,0,0,1,1.9,8.12" transform="translate(-284.434 -281.296)"/><path class="ab" d="M284.54,282.195a.748.748,0,1,0,.748-.751A.748.748,0,0,0,284.54,282.195Z" transform="translate(-284.54 -281.444)"/></g></g></g><g transform="translate(10.485 3.552)"><path class="z" d="M212.072,265.246a3.033,3.033,0,1,1-3.033-3.033A3.032,3.032,0,0,1,212.072,265.246Z" transform="translate(-206.007 -262.213)"/><path class="y" d="M211.315,264.795a2.541,2.541,0,1,1-2.542-2.541A2.54,2.54,0,0,1,211.315,264.795Z" transform="translate(-205.992 -262.21)"/><path class="ab" d="M210.073,264.067a1.608,1.608,0,1,1-1.608-1.608A1.608,1.608,0,0,1,210.073,264.067Z" transform="translate(-205.949 -262.196)"/></g><path class="s" d="M288.021,343.5v12.865a23.868,23.868,0,0,1-23.87,23.862H242.329a23.868,23.868,0,0,1-23.871-23.862V343.5a23.865,23.865,0,0,1,12.762-21.124,23.4,23.4,0,0,1,2.179-1.008c.182-.077.362-.146.544-.215a23.76,23.76,0,0,1,8.387-1.515h21.822a23.646,23.646,0,0,1,8.4,1.523c.182.07.362.138.534.217a23.379,23.379,0,0,1,2.258,1.041A23.867,23.867,0,0,1,288.021,343.5Z" transform="translate(-194.676 -254.756)"/><path class="t" d="M288.021,350.533v3.728a23.868,23.868,0,0,1-23.87,23.862H242.329a23.868,23.868,0,0,1-23.871-23.862v-3.728A23.869,23.869,0,0,0,242.329,374.4h21.822A23.868,23.868,0,0,0,288.021,350.533Z" transform="translate(-194.676 -252.655)"/><g transform="translate(0 20.864)"><g transform="translate(0 10.201)"><path class="p" d="M198.361,289.472a3.445,3.445,0,0,1,5.964,3.4c-4.658,10,4.581,24.157,15.638,29.665a3.443,3.443,0,1,1-3.072,6.163c-12.491-6.217-25.692-23.966-18.812-38.737A3.536,3.536,0,0,1,198.361,289.472Z" transform="translate(-196.19 -287.974)"/><path class="w" d="M204.237,292.875c-4.658,10,4.581,24.157,15.638,29.665a3.442,3.442,0,0,1,1.549,4.617c-.045.088-.1.162-.155.246a3.43,3.43,0,0,0-2.077-3.017c-11.36-4.848-21.414-18.439-17.351-28.7a3.441,3.441,0,0,0-4.36-4.509c.158-.407.324-.812.511-1.214a3.533,3.533,0,0,1,.282-.493,3.445,3.445,0,0,1,5.964,3.4Z" transform="translate(-196.102 -287.974)"/><g transform="translate(0.141 6.045)"><path class="q" d="M203.576,295.261a6.362,6.362,0,0,1-7.254-1.627" transform="translate(-196.322 -293.634)"/><path class="q" d="M203.4,301.117c-.389,1.158-4.19,2.826-6.8,1.038" transform="translate(-196.303 -293.125)"/><path class="q" d="M205.071,306.252c.2,1.6-2.827,4.333-6.038,2.625" transform="translate(-196.138 -292.776)"/><path class="q" d="M208.475,311.75c.4,1.433-2.461,5.019-5.836,3.516" transform="translate(-195.892 -292.402)"/><path class="q" d="M212.892,316.42c.946,1.789-1.968,5.448-5.152,4.7" transform="translate(-195.546 -292.085)"/><path class="q" d="M218.751,320.45c.646,1.418-1.035,5.576-4.638,5.336" transform="translate(-195.112 -291.811)"/></g><path class="r" d="M217.4,327.2c-4.521-1.143-24.78-19.647-18.495-34.2" transform="translate(-196.086 -287.633)"/></g><g transform="translate(0.383)"><path class="l" d="M200.582,292.162c6.3,3.413,12.67-2.49,12.393-8.284l-3.229-1.556a4.059,4.059,0,0,1-4.642,4.5c-3.99-.873-3.411-4.883-1.871-7.083l-3.262-1.311C195.9,281.97,194.72,288.99,200.582,292.162Z" transform="translate(-196.548 -278.423)"/><g class="ac"><path d="M200.582,292.162a7.8,7.8,0,0,0,4.644.958,8.274,8.274,0,0,1-2.3-.845c-5.555-3.006-4.781-9.462-1.219-13.15l-1.739-.7C195.9,281.97,194.72,288.99,200.582,292.162Z" transform="translate(-196.548 -278.423)"/><path d="M205.226,286.631c2.66,1.35,5.336-1.221,5.571-3.766l-1.64-.792A4.073,4.073,0,0,1,205.226,286.631Z" transform="translate(-195.958 -278.175)"/></g><path class="o" d="M210.751,285.654c-.35,1.13-1.5,3.354-3.318,4.1" transform="translate(-195.808 -277.931)"/></g><g transform="translate(91.444)"><g transform="translate(0 10.201)"><path class="p" d="M305.324,289.472a3.444,3.444,0,0,0-5.963,3.4c4.656,10-4.582,24.157-15.638,29.665a3.443,3.443,0,1,0,3.071,6.163c12.491-6.217,25.691-23.966,18.813-38.737A3.649,3.649,0,0,0,305.324,289.472Z" transform="translate(-281.811 -287.974)"/><path class="w" d="M299.361,292.875c4.656,10-4.582,24.157-15.638,29.665a3.442,3.442,0,0,0-1.551,4.617c.046.088.1.162.155.246a3.432,3.432,0,0,1,2.078-3.017c11.36-4.848,21.414-18.439,17.35-28.7a3.442,3.442,0,0,1,4.361-4.509c-.158-.407-.324-.812-.509-1.214a3.649,3.649,0,0,0-.283-.493,3.444,3.444,0,0,0-5.963,3.4Z" transform="translate(-281.811 -287.974)"/><g transform="translate(1.767 6.045)"><path class="q" d="M298.936,295.261a6.36,6.36,0,0,0,7.253-1.627" transform="translate(-282.414 -293.634)"/><path class="q" d="M299.087,301.117c.389,1.158,4.191,2.826,6.8,1.038" transform="translate(-282.404 -293.125)"/><path class="q" d="M297.364,306.252c-.2,1.6,2.828,4.333,6.038,2.625" transform="translate(-282.522 -292.776)"/><path class="q" d="M293.949,311.75c-.4,1.433,2.46,5.019,5.836,3.516" transform="translate(-282.756 -292.402)"/><path class="q" d="M289.5,316.42c-.944,1.789,1.967,5.448,5.153,4.7" transform="translate(-283.068 -292.085)"/><path class="q" d="M283.6,320.45c-.645,1.418,1.036,5.576,4.637,5.336" transform="translate(-283.466 -291.811)"/></g><path class="r" d="M285.9,327.2c4.522-1.143,24.78-19.647,18.5-34.2" transform="translate(-281.533 -287.633)"/></g><g transform="translate(8.867)"><path class="l" d="M302.516,292.162c-6.3,3.413-12.671-2.49-12.393-8.284l3.228-1.556a4.059,4.059,0,0,0,4.64,4.5c3.992-.873,3.412-4.883,1.872-7.083l3.262-1.311C307.2,281.97,308.377,288.99,302.516,292.162Z" transform="translate(-290.114 -278.423)"/><g class="ac" transform="translate(1.596)"><path d="M302.022,292.162a7.807,7.807,0,0,1-4.645.958,8.274,8.274,0,0,0,2.3-.845c5.554-3.006,4.78-9.462,1.219-13.15l1.739-.7C306.7,281.97,307.883,288.99,302.022,292.162Z" transform="translate(-291.216 -278.423)"/><path d="M297.18,286.631c-2.661,1.35-5.337-1.221-5.572-3.766l1.641-.792A4.073,4.073,0,0,0,297.18,286.631Z" transform="translate(-291.608 -278.175)"/></g><path class="o" d="M291.51,285.654c.349,1.13,1.5,3.354,3.318,4.1" transform="translate(-290.019 -277.931)"/></g></g></g><g transform="translate(34.392 64.879)"><path class="y" d="M276.746,337.184c0,9.232-2.075,14.072-7.165,16.7-2.679,1.378-8.431,1.982-13.571,2.109h-.026c-2.016.122-3.773.139-4.685.139-5.606,0-12.686-.569-15.741-2.145-5.09-2.626-7.165-7.459-7.165-16.7,0-4.839.172-9.507,1.558-13.415a14.209,14.209,0,0,1,.594-1.5,22.812,22.812,0,0,1,2.722-1.223,23.76,23.76,0,0,1,8.387-1.515h21.822a23.647,23.647,0,0,1,8.4,1.523,23.925,23.925,0,0,1,2.792,1.258,15.262,15.262,0,0,1,.584,1.515C276.581,327.807,276.746,332.415,276.746,337.184Z" transform="translate(-228.392 -319.635)"/><path class="ad" d="M274.841,337.288c0,8.475-1.775,12.875-6.228,15.173-2.66,1.369-9.627,2.025-16.155,1.931-6.528.094-13.494-.562-16.155-1.931-4.452-2.3-6.235-6.7-6.235-15.173,0-5.271.233-10.015,1.782-13.727a12.443,12.443,0,0,1,1.3-2.41,23.76,23.76,0,0,1,8.387-1.515h21.822a23.647,23.647,0,0,1,8.4,1.523,13,13,0,0,1,1.292,2.412C274.607,327.282,274.841,332.017,274.841,337.288Z" transform="translate(-228.278 -319.635)"/><path class="y" d="M274.841,336.643c0,8.474-1.775,12.874-6.228,15.174-2.66,1.368-9.627,2.022-16.155,1.928-6.528.094-13.494-.56-16.155-1.928-4.452-2.3-6.235-6.7-6.235-15.174,0-5.271.233-10.016,1.782-13.728a13.175,13.175,0,0,1,.757-1.55c.182-.077.362-.146.544-.215a23.76,23.76,0,0,1,8.387-1.515h21.822a23.647,23.647,0,0,1,8.4,1.523c.182.07.362.138.534.217a12.813,12.813,0,0,1,.758,1.551C274.607,326.636,274.841,331.372,274.841,336.643Z" transform="translate(-228.278 -319.635)"/></g><g transform="translate(55.091 76.705)"><g transform="translate(0 11.119)"><path class="ae" d="M254.4,344.861a3.033,3.033,0,1,1-3.032-3.031A3.033,3.033,0,0,1,254.4,344.861Z" transform="translate(-247.735 -341.071)"/><path class="j" d="M253.836,344.151a3.032,3.032,0,1,1-3.031-3.032A3.032,3.032,0,0,1,253.836,344.151Z" transform="translate(-247.773 -341.119)"/><path class="j" d="M253.082,343.7a2.542,2.542,0,1,1-2.542-2.543A2.542,2.542,0,0,1,253.082,343.7Z" transform="translate(-247.758 -341.116)"/><path class="af" d="M251.838,342.973a1.607,1.607,0,1,1-1.608-1.608A1.608,1.608,0,0,1,251.838,342.973Z" transform="translate(-247.715 -341.102)"/></g><g transform="translate(0.283)"><path class="ae" d="M254.666,334.451a3.032,3.032,0,1,1-3.033-3.032A3.032,3.032,0,0,1,254.666,334.451Z" transform="translate(-248 -330.66)"/><path class="j" d="M254.1,333.74a3.033,3.033,0,1,1-3.033-3.032A3.033,3.033,0,0,1,254.1,333.74Z" transform="translate(-248.038 -330.708)"/><path class="j" d="M253.346,333.289a2.541,2.541,0,1,1-2.541-2.54A2.54,2.54,0,0,1,253.346,333.289Z" transform="translate(-248.023 -330.705)"/><path class="af" d="M252.1,332.561a1.608,1.608,0,1,1-1.607-1.607A1.609,1.609,0,0,1,252.1,332.561Z" transform="translate(-247.98 -330.691)"/></g></g><g transform="translate(42.186 50.722)"><path class="l" d="M268.45,320.761c0,2.714-.984,3.672-4.916,5.192-5.179,2-21.362.852-23.887-.278s-3.957-2.2-3.957-4.914v-9.467c0-2.714,1.773-4.914,3.957-4.914h24.845c2.186,0,3.958,2.2,3.958,4.914Z" transform="translate(-235.69 -306.38)"/><path class="m" d="M264.492,306.38H239.647a3.126,3.126,0,0,0-.4.025,3.048,3.048,0,0,0-.328.061c-.019.006-.04.007-.058.013-1.809.454-3.171,2.436-3.171,4.816v9.467a6.285,6.285,0,0,0,.038.713c1.615,1.465,12.845,3.337,25.722,1.685-.116,1.229-.585,2.078-3.407,3.171a14.3,14.3,0,0,1-3.029.7c3.487-.061,6.691-.374,8.519-1.081,3.932-1.52,4.916-2.478,4.916-5.192v-9.467C268.45,308.58,266.678,306.38,264.492,306.38Z" transform="translate(-235.69 -306.38)"/></g><path class="s" d="M253.214,258.887c-18.974,0-34.355,14.755-34.355,32.957v21.678s-.211,10.765,34.355,10.765,34.354-10.765,34.354-10.765V291.844C287.569,273.642,272.187,258.887,253.214,258.887Z" transform="translate(-194.648 -258.887)"/><path class="t" d="M287.572,306.83v3.437s.207,10.764-34.36,10.764-34.351-10.764-34.351-10.764V306.83c0,.258.207,10.756,34.351,10.756C287.374,317.586,287.572,307.072,287.572,306.83Z" transform="translate(-194.648 -255.627)"/><g transform="translate(46.267 49.862)"><path class="ag" d="M250.564,305.574c-7.162,0-10.173,2.265-10.492,2.525a1.5,1.5,0,0,0-.561,1.172v3.893h3.014v-3.046a17.732,17.732,0,0,1,8.039-1.528,28.692,28.692,0,0,1,10.531,1.647v2.927h3.014V309.27a1.517,1.517,0,0,0-.747-1.3C263.194,307.871,259.167,305.574,250.564,305.574Z" transform="translate(-239.511 -305.574)"/><path class="ah" d="M250.509,306.381c-6.977,0-9.833,2.236-9.952,2.332a.647.647,0,0,0-.24.5v3.031h1.291v-2.688c.784-.483,3.523-1.886,8.9-1.886,6.656,0,10.335,1.449,11.392,1.941v2.634h1.291v-3.031a.644.644,0,0,0-.32-.557C262.714,308.565,258.876,306.381,250.509,306.381Z" transform="translate(-239.456 -305.519)"/></g><path class="ai" d="M223.6,284.467a30.882,30.882,0,0,1,14.421-18.25" transform="translate(-194.326 -258.389)"/><path class="aj" d="M276.31,293.154s-.325,8.787-23.77,8.787-23.769-8.787-23.769-8.787a23.771,23.771,0,0,1,47.54,0Z" transform="translate(-193.974 -258.157)"/><path class="ak" d="M233,288.29s2.235-9.833,11.683-13.529" transform="translate(-193.686 -257.808)"/><path class="y" d="M244.409,264.111a2.29,2.29,0,1,1-2.291-2.291A2.291,2.291,0,0,1,244.409,264.111Z" transform="translate(-193.223 -258.688)"/><path class="g" d="M239.269,293.941l-.816-.625.816-.625a1.292,1.292,0,0,0-1.571-2.051l-1.368,1.047-1.367-1.047a1.292,1.292,0,0,0-1.571,2.051l.816.625-.816.625a1.292,1.292,0,1,0,1.571,2.051l1.367-1.048,1.368,1.048a1.29,1.29,0,0,0,1.81-.239A1.293,1.293,0,0,0,239.269,293.941Z" transform="translate(-193.695 -256.746)"/><path class="g" d="M267.961,293.941l-.816-.625.816-.625a1.292,1.292,0,1,0-1.572-2.051l-1.366,1.047-1.368-1.047a1.292,1.292,0,1,0-1.572,2.051l.815.625-.815.625a1.292,1.292,0,1,0,1.572,2.051l1.368-1.048,1.366,1.048a1.292,1.292,0,1,0,1.572-2.051Z" transform="translate(-191.744 -256.746)"/></g><path class="b" d="M116.943,440.4c-18.054-.957-60.519,2.3-61.944,9.888-.577,3.076,24.9,6.021,41.717,3.42C49.732,449.552,84.43,440.724,116.943,440.4Z" transform="translate(0 15.486)"/><path class="b" d="M462.607,434.714c-4.478-2.573-39.124-6.075-46.012-5.694,11.054.876,47.774,4.2,32.876,7.935-4.774,1.2-24.789,1.632-30.838,4.7-2.856,1.448,12.057,4.121,8.693,7.914-2.884,2.916-47.583,10.282-61.28,10.353,9.372,1.241,76.538-1.386,78.22-8.311.5-2.04-11.774-6.563-10.694-8.168S473.276,440.84,462.607,434.714Z" transform="translate(21.151 14.721)"/></g></svg>